<?xml version="1.0" encoding="UTF-8" standalone="no"?>
<svg
   viewBox="0 0 23 23"
   version="1.1"
   id="svg1"
   xml:space="preserve"
   inkscape:version="1.4.2 (f4327f4, 2025-05-13)"
   sodipodi:docname="giessen_von_oben_mitWz.svg"
   preserveAspectRatio="xMidYMid"
   width="23"
   height="23"
   xmlns:inkscape="http://www.inkscape.org/namespaces/inkscape"
   xmlns:sodipodi="http://sodipodi.sourceforge.net/DTD/sodipodi-0.dtd"
   xmlns:xlink="http://www.w3.org/1999/xlink"
   xmlns="http://www.w3.org/2000/svg"
   xmlns:svg="http://www.w3.org/2000/svg"><sodipodi:namedview
     id="namedview1"
     pagecolor="#ffffff"
     bordercolor="#000000"
     borderopacity="0.25"
     inkscape:showpageshadow="2"
     inkscape:pageopacity="0.0"
     inkscape:pagecheckerboard="0"
     inkscape:deskcolor="#d1d1d1"
     inkscape:document-units="mm"
     inkscape:zoom="5.6568542"
     inkscape:cx="-3.4471456"
     inkscape:cy="-43.398679"
     inkscape:window-width="1920"
     inkscape:window-height="974"
     inkscape:window-x="-11"
     inkscape:window-y="-11"
     inkscape:window-maximized="1"
     inkscape:current-layer="layer2"
     showgrid="false" /><defs
     id="defs1"><linearGradient
       x1="69.982292"
       y1="167.08438"
       x2="69.056252"
       y2="164.70312"
       gradientUnits="userSpaceOnUse"
       gradientTransform="scale(2.834646)"
       spreadMethod="pad"
       id="linearGradient18"><stop
         style="stop-opacity:1;stop-color:#000000"
         offset="0"
         id="stop17" /><stop
         style="stop-opacity:0;stop-color:#000000"
         offset="1"
         id="stop18" /></linearGradient><linearGradient
       id="swatch4"
       inkscape:swatch="solid"><stop
         style="stop-color:#000000;stop-opacity:1;"
         offset="0"
         id="stop4" /></linearGradient><linearGradient
       id="swatch3"
       inkscape:swatch="solid"><stop
         style="stop-color:#fafafa;stop-opacity:1;"
         offset="0"
         id="stop3" /></linearGradient><inkscape:path-effect
       effect="bspline"
       id="path-effect176"
       is_visible="true"
       lpeversion="1.3"
       weight="33.333333"
       steps="2"
       helper_size="0"
       apply_no_weight="true"
       apply_with_weight="true"
       only_selected="false"
       uniform="false" /><inkscape:path-effect
       effect="bspline"
       id="path-effect175"
       is_visible="true"
       lpeversion="1.3"
       weight="33.333333"
       steps="2"
       helper_size="0"
       apply_no_weight="true"
       apply_with_weight="true"
       only_selected="false"
       uniform="false" /><inkscape:path-effect
       effect="bspline"
       id="path-effect174"
       is_visible="true"
       lpeversion="1.3"
       weight="33.333333"
       steps="2"
       helper_size="0"
       apply_no_weight="true"
       apply_with_weight="true"
       only_selected="false"
       uniform="false" /><inkscape:path-effect
       effect="bspline"
       id="path-effect163"
       is_visible="true"
       lpeversion="1.3"
       weight="33.333333"
       steps="2"
       helper_size="0"
       apply_no_weight="true"
       apply_with_weight="true"
       only_selected="false"
       uniform="false" /><linearGradient
       inkscape:collect="always"
       xlink:href="#swatch4"
       id="linearGradient66"
       x1="82.649483"
       y1="142.40877"
       x2="178.7399"
       y2="142.40877"
       gradientUnits="userSpaceOnUse"
       gradientTransform="matrix(0.05723235,-0.04750757,0.04661941,0.056163,2.4025276,3.3892241)" /><linearGradient
       inkscape:collect="always"
       xlink:href="#swatch4"
       id="linearGradient1"
       gradientUnits="userSpaceOnUse"
       x1="75.216827"
       y1="173.7551"
       x2="145.21683"
       y2="173.7551"
       gradientTransform="matrix(0.06014552,-0.04992574,0.04992547,0.06014585,1.4750103,2.8078952)" /></defs><g
     inkscape:label="Ebene 1"
     inkscape:groupmode="layer"
     id="layer1"><path
       id="path3"
       style="fill:#000000;fill-opacity:1;fill-rule:evenodd;stroke:none;stroke-width:0.0166749"
       d="m 5.2164088,15.398473 c -0.186403,-0.0063 -0.3407827,0.149321 -0.3898795,0.431265 -0.059368,0.34098 0.054004,0.759302 0.2614207,1.025236 -0.014251,-0.006 -0.02884,-0.0118 -0.043921,-0.01753 l -0.00115,-4.48e-4 c -0.4492103,-0.169756 -1.0943905,-0.167733 -1.4411745,0.0045 -0.3467656,0.172197 -0.2639651,0.44943 0.1850243,0.619298 0.2358248,0.08922 0.525738,0.131009 0.7981925,0.125724 -0.2841888,0.230508 -0.4982196,0.544689 -0.5223976,0.798257 -0.032227,0.337951 0.2847604,0.440421 0.7080873,0.228865 0.2851684,-0.142469 0.5456872,-0.391123 0.6954212,-0.641582 v 4.491955 c 0,0.02571 0.00199,0.04638 0.00448,0.04638 h 0.2486452 c 0.00242,0 0.00441,-0.02067 0.00441,-0.04638 V 17.93939 c 0.1662711,0.164788 0.3825938,0.313202 0.6101295,0.40659 0.4421529,0.181465 0.7702244,0.09223 0.7466628,-0.203146 -0.020289,-0.254337 -0.2953365,-0.584699 -0.6552045,-0.807146 0.041156,-0.01076 0.083241,-0.02322 0.126152,-0.03755 0.4791379,-0.159936 0.8943392,-0.490016 0.9532483,-0.757781 0.05885,-0.267777 -0.2583886,-0.383121 -0.7284287,-0.264822 -0.3580689,0.09011 -0.712791,0.29275 -0.9198637,0.510703 0.010461,-0.03368 0.019163,-0.0698 0.025887,-0.108278 l 1.991e-4,-0.0011 C 5.9535526,16.266604 5.7750224,15.74455 5.4835748,15.510674 5.392495,15.437604 5.3011374,15.401322 5.2164088,15.398473 Z m 0.3500175,1.553572 c 0.049577,9.42e-4 0.099359,0.01392 0.1428553,0.03988 l 3.776e-4,1.67e-4 c 0.1159185,0.06939 0.1430909,0.204715 0.060736,0.302383 -0.082336,0.09761 -0.2430285,0.120561 -0.3590016,0.0513 -0.1159911,-0.06933 -0.1433326,-0.204661 -0.061068,-0.302329 0.051426,-0.06104 0.1334735,-0.09295 0.2161019,-0.09139 z" /><path
       id="path60"
       d="m 6.2216874,20.334858 c 1.2584039,-0.335473 -0.4882426,0.344486 -0.5962746,0.379995 -0.5137013,-0.02763 0.5796653,-0.37558 0.5962746,-0.379995 z"
       style="fill:#000000;fill-opacity:1;fill-rule:evenodd;stroke:none;stroke-width:0.0181719" /><path
       id="path60-8"
       d="M 4.8683675,20.807584 C 3.6099635,20.47211 5.35661,21.152071 5.464642,21.187579 5.9783434,21.159959 4.8849767,20.812 4.8683675,20.807584 Z"
       style="fill:#000000;fill-opacity:1;fill-rule:evenodd;stroke:none;stroke-width:0.0181719" /><path
       id="path62"
       d="M 4.7706074,20.637713 C 4.4945326,20.354162 4.1860691,19.98894 3.6163665,19.885215 3.0465824,19.781495 1.6069157,19.790472 1.8780895,20.073114 2.1492723,20.35577 3.047208,20.963834 3.6193258,21.069975 4.19139,21.176169 5.0368521,20.919399 4.7706074,20.637713 L 3.7379708,20.45153 Z"
       style="fill:#000000;fill-opacity:1;fill-rule:evenodd;stroke:none;stroke-width:0.0181719"
       inkscape:transform-center-x="-30"
       inkscape:transform-center-y="-36.666667" /><path
       id="path61"
       d="M 6.2006087,20.291258 C 6.4765104,19.934833 6.7789278,19.484069 7.4068281,19.271181 8.0347712,19.058262 9.654429,18.814633 9.383902,19.169197 9.113439,19.523794 8.1777326,20.341931 7.5474854,20.557904 6.9171821,20.773866 5.9355478,20.64395 6.2006087,20.291258 L 7.3388547,19.9074 Z"
       style="fill:#000000;fill-opacity:1;fill-rule:evenodd;stroke:none;stroke-width:0.0171872" /><path
       id="path3-6"
       style="fill:#000000;fill-opacity:1;fill-rule:evenodd;stroke:none;stroke-width:0.0191969"
       d="m 17.817152,14.253325 c -0.212785,-0.0072 -0.389015,0.173367 -0.445061,0.500713 -0.06777,0.39589 0.06165,0.881576 0.298422,1.190335 -0.01627,-0.0069 -0.03292,-0.0137 -0.05014,-0.02035 l -0.0013,-5.21e-4 c -0.51279,-0.197091 -1.249287,-0.194743 -1.645153,0.0052 -0.395845,0.199927 -0.301325,0.521805 0.211212,0.719027 0.269202,0.103579 0.600149,0.152106 0.911165,0.14597 -0.324412,0.267627 -0.568735,0.632402 -0.596335,0.926805 -0.03678,0.392374 0.325064,0.511343 0.808307,0.26572 0.325529,-0.165411 0.622921,-0.454107 0.793848,-0.7449 v 5.21532 c 0,0.02985 0.0022,0.05384 0.0051,0.05384 h 0.283839 c 0.0027,0 0.005,-0.02401 0.005,-0.05384 v -5.253248 c 0.189804,0.191324 0.436745,0.363639 0.696484,0.472066 0.504734,0.210687 0.879239,0.107084 0.852343,-0.235859 -0.02316,-0.295295 -0.337138,-0.678858 -0.747939,-0.937127 0.04698,-0.0125 0.09503,-0.02696 0.144007,-0.04359 0.546952,-0.185689 1.020919,-0.568925 1.088166,-0.879809 0.06718,-0.310898 -0.29496,-0.444815 -0.831527,-0.307468 -0.408749,0.104618 -0.813676,0.339893 -1.050057,0.592945 0.01194,-0.0391 0.02187,-0.08104 0.02955,-0.125714 l 2.27e-4,-0.0013 c 0.08128,-0.476291 -0.122516,-1.082415 -0.455215,-1.353953 -0.10397,-0.08483 -0.208258,-0.126961 -0.304979,-0.130269 z m 0.399558,1.803752 c 0.05659,0.0011 0.113422,0.01616 0.163075,0.0463 l 4.3e-4,1.95e-4 c 0.132326,0.08057 0.163344,0.237681 0.06933,0.351077 -0.09399,0.113325 -0.277426,0.139975 -0.409813,0.05956 -0.132408,-0.08049 -0.16362,-0.237617 -0.06971,-0.351013 0.0587,-0.07087 0.152365,-0.107917 0.246688,-0.10611 z" /><path
       id="path60-5"
       d="m 18.964714,19.366608 c 1.436513,-0.347496 -0.557346,0.356833 -0.680668,0.393614 -0.586409,-0.02861 0.661708,-0.38904 0.680668,-0.393614 z"
       style="fill:#000000;fill-opacity:1;fill-rule:evenodd;stroke:none;stroke-width:0.0197603" /><path
       id="path60-8-0"
       d="m 17.419851,19.856277 c -1.436513,-0.347497 0.557347,0.356833 0.680668,0.393613 0.586409,-0.02861 -0.661708,-0.38904 -0.680668,-0.393613 z"
       style="fill:#000000;fill-opacity:1;fill-rule:evenodd;stroke:none;stroke-width:0.0197603" /><path
       id="path61-9"
       d="m 18.901917,19.238482 c 0.372001,-0.294175 0.812042,-0.678851 1.337193,-0.728709 0.525205,-0.04987 1.715676,0.137933 1.348193,0.431643 -0.367465,0.293758 -1.419188,0.88683 -1.94754,0.939244 -0.528377,0.05239 -1.100753,-0.348922 -0.737846,-0.642178 l 0.950885,-0.08825 z"
       style="fill:#000000;fill-opacity:1;fill-rule:evenodd;stroke:none;stroke-width:0.0155973" /><path
       id="path62-0"
       d="m 17.849148,19.905172 c -0.188168,-0.289553 -0.39842,-0.66251 -0.786723,-0.768431 -0.388358,-0.105915 -1.369625,-0.09675 -1.184796,0.191878 0.184836,0.288642 0.796865,0.90958 1.186818,1.017969 0.389911,0.108442 0.966175,-0.153765 0.784701,-0.441416 l -0.703836,-0.190125 z"
       style="fill:#000000;fill-opacity:1;fill-rule:evenodd;stroke:none;stroke-width:0.0151604"
       inkscape:transform-center-x="-17.912508"
       inkscape:transform-center-y="-36.666667" /><path
       id="path3-9"
       style="fill:#000000;fill-opacity:1;fill-rule:evenodd;stroke:none;stroke-width:0.0173488"
       d="m 12.463051,13.126626 c -0.152921,-0.0083 -0.27957,0.197024 -0.319847,0.569037 -0.04871,0.449909 0.0443,1.001868 0.214462,1.352758 -0.01169,-0.0078 -0.02366,-0.01557 -0.03603,-0.02312 l -9.49e-4,-5.93e-4 c -0.36852,-0.223985 -0.897811,-0.221316 -1.182304,0.0059 -0.284477,0.227207 -0.21655,0.593006 0.15179,0.817141 0.193464,0.117711 0.431302,0.172859 0.654817,0.165887 -0.233141,0.304145 -0.408727,0.718695 -0.428562,1.053269 -0.02644,0.445913 0.233611,0.581116 0.580897,0.301979 0.233945,-0.187983 0.447669,-0.516072 0.570506,-0.846544 v 5.926959 c 0,0.03392 0.0017,0.06119 0.0037,0.06119 h 0.203983 c 0.002,0 0.0036,-0.02728 0.0036,-0.06119 V 16.47921 c 0.136404,0.217432 0.31387,0.413259 0.500534,0.536481 0.362732,0.239435 0.631873,0.121696 0.612543,-0.268042 -0.01664,-0.33559 -0.242286,-0.77149 -0.537513,-1.064999 0.03377,-0.01421 0.06829,-0.03064 0.103492,-0.04954 0.393072,-0.211027 0.733694,-0.646556 0.782021,-0.999861 0.04828,-0.35332 -0.211976,-0.505511 -0.597584,-0.349422 -0.293752,0.118892 -0.584756,0.386272 -0.754634,0.673853 0.0086,-0.04444 0.01572,-0.09209 0.02124,-0.142869 l 1.62e-4,-0.0014 c 0.05841,-0.541282 -0.08805,-1.230112 -0.327143,-1.538702 -0.07472,-0.09642 -0.149667,-0.144285 -0.219176,-0.148044 z m 0.287145,2.049877 c 0.04068,0.0012 0.08151,0.01837 0.117195,0.05262 l 3.1e-4,2.21e-4 c 0.0951,0.09155 0.117388,0.270114 0.04982,0.398983 -0.06755,0.128789 -0.199374,0.159074 -0.294516,0.06769 -0.09515,-0.09148 -0.117586,-0.27004 -0.0501,-0.398909 0.04219,-0.08054 0.109498,-0.122643 0.177285,-0.120589 z" /><path
       id="path60-86"
       d="m 13.287756,18.937626 c 1.032363,-0.394913 -0.400542,0.405524 -0.489169,0.447323 -0.421427,-0.03252 0.475543,-0.442125 0.489169,-0.447323 z"
       style="fill:#000000;fill-opacity:1;fill-rule:evenodd;stroke:none;stroke-width:0.0178579" /><path
       id="path60-8-5"
       d="m 12.177527,19.494111 c -1.032363,-0.394913 0.400541,0.405524 0.489168,0.447323 0.421428,-0.03252 -0.475542,-0.442125 -0.489168,-0.447323 z"
       style="fill:#000000;fill-opacity:1;fill-rule:evenodd;stroke:none;stroke-width:0.0178579" /><path
       id="path61-0"
       d="m 13.218429,18.669969 c 0.226343,-0.419577 0.474437,-0.95021 0.989552,-1.200816 0.515149,-0.250646 1.843875,-0.537441 1.621942,-0.120049 -0.221882,0.417425 -0.989511,1.380523 -1.50655,1.634761 -0.517086,0.25423 -1.322393,0.101288 -1.104944,-0.31389 l 0.933789,-0.451871 z"
       style="fill:#000000;fill-opacity:1;fill-rule:evenodd;stroke:none;stroke-width:0.0168901" /><path
       id="path62-2"
       d="m 12.088921,19.260481 c -0.226485,-0.298596 -0.479541,-0.683196 -0.946911,-0.792426 -0.467436,-0.109226 -1.648504,-0.09977 -1.42604,0.197869 0.222473,0.297656 0.959117,0.937984 1.428469,1.049757 0.469305,0.111839 1.162901,-0.158566 0.944482,-0.4552 l -0.847151,-0.19606 z"
       style="fill:#000000;fill-opacity:1;fill-rule:evenodd;stroke:none;stroke-width:0.0168901"
       inkscape:transform-center-x="-19.316449"
       inkscape:transform-center-y="-28.744431" /><path
       id="rect8-1"
       style="vector-effect:none;fill-rule:evenodd;stroke-width:0.0206816;stop-color:#000000"
       d="m 16.791028,11.590147 3.729023,-3.0953962 c 0.133283,-0.1106355 0.329649,-0.092403 0.440284,0.04088 l 0.349478,0.4210209 c 0.110635,0.1332833 0.09241,0.3296513 -0.04088,0.4402863 l -3.729021,3.095396 c -0.133283,0.110636 -0.329649,0.09241 -0.440284,-0.04088 l -0.349479,-0.421021 c -0.110635,-0.133283 -0.0924,-0.329651 0.04088,-0.440286 z" /><path
       id="path15-22"
       style="fill:none;stroke-width:0.0207142;stroke-dasharray:none"
       d="m 13.915183,2.2432584 a 3.9083487,3.1266758 50.305399 0 0 -0.749906,3.731258 l 1.701665,-0.3606379 c 0.05442,-0.04924 0.107154,-0.1002847 0.159421,-0.1518617 0.07085,-0.067729 0.149016,-0.1274347 0.224202,-0.1902512 0.07604,-0.059523 0.153454,-0.1196896 0.21553,-0.1941843 0.0058,-0.00688 0.01157,-0.012704 0.0175,-0.017624 0.02153,-0.017867 0.04383,-0.022943 0.06371,-0.020074 0.01824,-0.021881 0.03685,-0.043454 0.0566,-0.063992 0.04,-0.040576 0.08496,-0.076213 0.122461,-0.1189775 0.0062,-0.00706 0.0125,-0.013088 0.01884,-0.018158 0.06309,-0.050395 0.128605,-0.00602 0.131316,0.05043 0.02089,-0.017551 0.04125,-0.035728 0.06168,-0.053823 -0.0018,-0.00672 9.2e-4,-0.015539 0.01105,-0.023185 0.0069,-0.00522 0.01377,-0.010522 0.02065,-0.015783 0.02052,-0.016127 0.04095,-0.032369 0.06132,-0.048695 0.0033,-0.00339 0.0069,-0.00651 0.01025,-0.00998 l -5e-5,-6.02e-5 c 0.0033,-0.00344 0.0066,-0.00662 0.0099,-0.00958 0.0055,-0.00482 0.01078,-0.0066 0.01621,-0.010201 0.02513,-0.020558 0.05056,-0.04073 0.07566,-0.061332 0.01273,-0.010972 0.02583,-0.021506 0.03854,-0.032499 0.0063,-0.00543 0.01226,-0.011234 0.01861,-0.016604 0.0175,-0.014936 0.03612,-0.028618 0.05295,-0.044359 0.0054,-0.0052 0.01065,-0.010587 0.01617,-0.01568 0.01418,-0.013196 0.02931,-0.025551 0.0414,-0.040822 l 5e-5,6.02e-5 c 0.0014,-0.00171 0.0027,-0.00319 0.0041,-0.00444 0.02094,-0.018912 0.04618,0.0093 0.02055,0.02919 -0.02193,0.017014 -0.04301,0.035097 -0.0653,0.051682 -0.01833,0.014032 -0.03502,0.030101 -0.05278,0.044823 -0.0065,0.00526 -0.01323,0.010167 -0.01969,0.015429 -0.0064,0.00516 -0.0125,0.010478 -0.01873,0.015755 l -0.02013,0.016408 c -0.0095,0.00795 -0.01875,0.016071 -0.02815,0.02408 0.06478,0.00874 0.09911,0.097719 0.0088,0.1564416 -0.02942,0.019133 -0.05779,0.039889 -0.08607,0.060682 -0.0035,0.00262 -0.0069,0.00537 -0.01048,0.00799 0.02867,0.022535 0.03096,0.07239 -0.02418,0.1161972 -0.05557,0.044141 -0.111105,0.088335 -0.165759,0.1336016 -0.05991,0.048625 -0.120548,0.09595 -0.187421,0.1348898 -0.07289,0.046937 -0.147589,0.091706 -0.214313,0.1473962 -0.01796,0.014603 -0.03598,0.029254 -0.05349,0.044459 L 16.35054,5.2993589 19.47998,7.5199038 A 3.9083487,3.1266758 50.305399 0 0 18.543774,3.0626487 3.9083487,3.1266758 50.305399 0 0 14.263977,2.0152792 3.9083487,3.1266758 50.305399 0 0 13.915081,2.2432074 Z m 1.293011,3.2228475 c -0.03354,0.027832 -0.06743,0.055261 -0.09996,0.08429 -0.0055,0.00521 -0.01079,0.010523 -0.01621,0.015762 l 0.04021,-0.00854 c 0.0054,-0.00978 0.01244,-0.019842 0.02178,-0.029991 0.0081,-0.00877 0.01615,-0.01757 0.02422,-0.026351 0.01007,-0.01169 0.02005,-0.023394 0.02997,-0.035168 z" /><path
       id="path15-2"
       style="fill:#020202;fill-opacity:1;stroke:url(#linearGradient66);stroke-width:0.0195257;stroke-dasharray:none"
       d="m 13.756523,1.9296786 8e-5,9.62e-5 2.6e-5,3.11e-5 2.5e-5,3.1e-5 C 12.784697,2.6940417 12.327579,3.9736335 12.536929,5.3441522 L 13.039603,4.9268913 C 12.876897,3.7609984 13.262094,2.7081031 14.073266,2.1014841 l -5e-5,-6.01e-5 c 0.223583,-0.1666303 0.474685,-0.2957051 0.746635,-0.3837943 1.410548,-0.4568862 3.159102,0.2462628 4.228735,1.7005068 0.95201,1.2948916 1.155364,2.9041315 0.512392,4.0548286 l 0.479562,0.329376 C 20.883215,6.2728447 20.496582,4.1718185 19.10422,2.7142195 17.711867,1.2566164 15.67415,0.8196855 14.169412,1.656089 14.02449,1.7366459 13.886556,1.8280453 13.756525,1.9296806 Z m -1.123199,3.8898251 c 0.03518,0.1415599 0.07724,0.2823068 0.126019,0.4216771 L 14.624636,5.324305 c 0.02643,-0.02153 -0.0261,0.021866 0,0 0.07233,-0.056674 0.411217,-0.2820478 0.470484,-0.3526955 0.0055,-0.00652 -0.0057,0.00469 0,0 0.02051,-0.017017 -0.01876,-0.00254 0,0 0.01742,-0.020737 0.374903,-0.3622495 0.393724,-0.3817408 0.02187,-0.022108 0.07455,-0.3101251 0.09729,-0.3313296 l -0.09729,0.3313296 c 0.01923,-0.014866 -0.01889,0.015374 0,0 0.05466,-0.045267 0.04172,-0.2871888 0.09729,-0.3313296 0.464716,-0.6731172 0.373718,-0.256426 0,0 -0.679507,0.6675188 -1.503103,1.0614412 -2.369681,1.0769458 z M 16.168583,5.230728 c 0.02687,0.020957 0.02857,0.067835 -0.02388,0.1095418 -0.05286,0.042024 -0.105668,0.084076 -0.157673,0.1271533 -0.0045,0.00363 -0.009,0.00719 -0.0135,0.010802 l 0.413874,-0.098231 0.07911,-0.1902992 -0.257003,0.011536 c -0.01025,0.00742 -0.02081,0.014375 -0.03097,0.021882 -0.0033,0.00248 -0.0067,0.00509 -0.01,0.00758 z"
       sodipodi:nodetypes="cccccccccccccscccccsccccccsccccsccccccccs" /><path
       id="rect27"
       style="font-variation-settings:normal;vector-effect:none;fill:#000000;fill-opacity:1;fill-rule:evenodd;stroke-width:0.0186487;stroke-linecap:butt;stroke-linejoin:miter;stroke-miterlimit:4;stroke-dasharray:none;stroke-dashoffset:0;stroke-opacity:1;-inkscape-stroke:none;stop-color:#000000"
       d="m 9.665841,7.7336401 c 0.0079,0.015628 0.01705,0.030973 0.02895,0.045315 l 0.902268,1.0869732 c 0.05556,0.00191 0.110882,-4.492e-4 0.166107,-8.125e-4 0.05723,-9.722e-4 0.111309,-0.012479 0.165427,-0.023452 0.01964,-0.00398 0.0383,-0.011377 0.05892,-0.012056 0.08015,-0.00264 0.108651,0.00975 0.188671,0.029595 0.191362,0.070808 0.381462,0.1489772 0.57145,0.2273252 0.160068,0.05877 0.314667,0.134775 0.469715,0.213604 0.08209,0.0398 0.163247,0.08218 0.2446,0.123915 L 11.10383,7.7878989 c -0.05307,-0.00635 -0.106063,-0.01193 -0.158897,-0.015356 -0.162131,-0.011702 -0.325262,-0.035704 -0.487834,-0.051836 -0.161429,-0.00963 -0.324148,-0.025936 -0.482991,-0.019947 -0.08361,0.00408 -0.171375,0.00638 -0.249874,0.026196 -0.02054,0.00518 -0.03988,0.00686 -0.05839,0.00668 z m 1.084318,-0.7350225 c 5.55e-4,3.513e-4 0.0011,6.266e-4 0.0016,9.208e-4 2.78e-4,-1.296e-4 5.31e-4,-3.392e-4 8.65e-4,-4.132e-4 -0.0012,-2.725e-4 -0.0014,-3.139e-4 -0.0024,-5.412e-4 z m -0.304744,0.4836873 c 0.0028,4.679e-4 0.0052,0.00108 0.0083,0.00143 0.0025,2.82e-4 0.0051,1.713e-4 0.0075,6.96e-5 -0.003,-7.801e-4 -0.0062,-0.00143 -0.0092,-0.0022 -0.0023,2.67e-4 -0.0044,4.044e-4 -0.0067,7.079e-4 z m 0.700115,-0.465135 c -9.8e-5,9.978e-4 -2.92e-4,0.00191 -3.84e-4,0.00289 3.52e-4,4.188e-4 7.58e-4,8.538e-4 0.0011,0.00128 3.27e-4,-2.799e-4 6.72e-4,-4.826e-4 9.78e-4,-7.685e-4 -5.77e-4,-0.00113 -0.0012,-0.00227 -0.0018,-0.0034 z m 0.435149,0.4836269 c 0.0019,0.00216 0.0037,0.00432 0.0056,0.00649 0.0015,-3.129e-4 0.0029,-6.949e-4 0.0044,-0.00103 -0.0033,-0.00191 -0.0067,-0.00354 -0.01,-0.00546 z m -0.03567,0.3455354 0.0056,0.00671 c -5.91e-4,-0.00205 -0.0013,-0.00352 -0.0018,-0.0063 -0.0013,-1.366e-4 -0.0025,-2.701e-4 -0.0038,-4.081e-4 z m 0.01339,0.016131 1.529845,1.8430238 c 0.02691,0.01064 0.05367,0.02219 0.08064,0.03239 0.146529,0.0442 0.291176,0.09839 0.433625,0.165447 0.05408,0.02278 0.108464,0.04365 0.162916,0.06415 0.03706,0.0054 0.08102,0.02111 0.12928,0.04886 0.04699,0.01747 0.09407,0.03462 0.140895,0.05324 0.172781,0.05901 0.345347,0.119924 0.517447,0.183643 0.135737,0.05301 0.273373,0.09267 0.410886,0.129515 0.04125,0.0096 0.0824,0.021 0.123514,0.03281 L 13.173214,8.1094429 c -0.02879,0.010831 -0.06824,0.013081 -0.119287,7.428e-4 -0.02367,-0.00572 -0.04733,-0.011454 -0.07101,-0.017178 -0.149243,-0.031797 -0.298372,-0.060218 -0.447439,-0.082479 -0.182142,-0.028363 -0.364641,-0.066103 -0.546768,-0.093682 -0.138145,-0.024504 -0.276426,-0.05097 -0.414139,-0.067281 -0.0071,0.00846 -0.01221,0.01252 -0.01616,0.012909 z m 1.161246,2.4036548 c 0.0023,0.0041 0.0044,0.0082 0.0068,0.01225 4.29e-4,7.73e-4 5.67e-4,0.0011 9.76e-4,0.0019 5.35e-4,-0.0034 0.0012,-0.0068 0.0019,-0.01024 -0.0032,-0.0013 -0.0064,-0.0025 -0.0096,-0.0038 z m 0.746531,0.672692 c 1.88e-4,0.0011 1.57e-4,0.0022 3.29e-4,0.0032 0.0071,0.0072 0.01423,0.01454 0.02136,0.02181 -9.79e-4,-0.0029 -0.0021,-0.0059 -0.003,-0.0087 -0.0062,-0.0055 -0.01249,-0.01078 -0.01863,-0.0163 z m -0.23892,0.38369 c 2.64e-4,9.3e-4 5.37e-4,0.0019 8.01e-4,0.0028 0.0085,0.01413 0.01775,0.02784 0.02652,0.04182 0.0033,4.35e-4 0.0066,0.0011 0.0098,0.0018 -0.01233,-0.0155 -0.02482,-0.03084 -0.03712,-0.04636 z m 1.058994,-0.09401 c 0.004,0.0099 0.008,0.01986 0.01107,0.02991 0.0019,-0.0054 0.0045,-0.01036 0.0065,-0.01564 -0.0059,-0.0047 -0.01165,-0.0096 -0.01752,-0.01427 z m -0.921221,0.904122 c -6.97e-4,0.0031 -0.0015,0.0058 -0.0022,0.0088 0.0031,-3e-5 0.0063,-1.85e-4 0.0095,2.2e-5 -0.0028,-0.0035 -0.0046,-0.0056 -0.0073,-0.0088 z m 1.791607,-1.393894 c 9.1e-4,6.67e-4 0.0019,0.0015 0.0027,0.0022 0.0012,1.05e-4 0.0023,-3.2e-5 0.0035,9.8e-5 -0.0021,-9.47e-4 -0.0041,-0.0015 -0.0063,-0.0023 z m -0.491109,0.409185 c -0.0017,0.002 -0.0036,0.0035 -0.0053,0.0056 0.01,0.0049 0.02039,0.01183 0.03086,0.01921 -0.0016,-0.0014 -0.0031,-0.0027 -0.0047,-0.0042 -0.0075,-0.0068 -0.01443,-0.0137 -0.02084,-0.02055 z m 0.759349,-0.239587 c 0.0011,0.0027 0.0022,0.0056 0.0032,0.0083 1.75e-4,-0.002 -2.17e-4,-0.004 -1.06e-4,-0.006 -0.0011,-7.57e-4 -0.0022,-0.0016 -0.0031,-0.0023 z" /><path
       id="rect8"
       style="vector-effect:none;fill-rule:evenodd;stroke-width:0.0206816;stop-color:#000000"
       d="m 12.264039,6.1260273 3.729023,-3.095396 c 0.133282,-0.1106355 0.329649,-0.092403 0.440283,0.04088 l 0.349479,0.421021 c 0.110634,0.1332832 0.0924,0.3296509 -0.04088,0.4402864 l -3.729022,3.0953962 c -0.133282,0.1106354 -0.329649,0.092403 -0.440284,-0.04088 L 12.223159,6.5663137 c -0.110635,-0.1332832 -0.09241,-0.329651 0.04088,-0.4402864 z" /><path
       id="rect13"
       style="vector-effect:none;fill-rule:evenodd;stroke:url(#linearGradient1);stroke-width:0.0206816;stop-color:#000000"
       d="m 13.280261,7.3349747 3.729022,-3.0953964 c 0.133283,-0.1106355 0.32965,-0.092403 0.440285,0.04088 l 2.868778,3.4560548 c 0.110635,0.1332831 0.09241,0.3296509 -0.04088,0.4402863 l -3.729023,3.0953976 c -0.133282,0.110634 -0.329649,0.0924 -0.440284,-0.04088 L 13.239381,7.775261 c -0.110635,-0.1332831 -0.09241,-0.3296509 0.04088,-0.4402863 z" /><path
       id="rect1-1"
       style="vector-effect:none;fill-rule:evenodd;stroke-width:0.0206816;stop-color:#000000"
       d="m 9.505263,7.5506518 c 0.09698,-0.080499 0.264115,-0.038004 0.37475,0.095279 l 0.881913,1.0624512 c 0.110634,0.1332833 0.12163,0.305389 0.02465,0.385888 -0.09697,0.0805 -0.264115,0.038 -0.37475,-0.095279 L 9.529916,7.9365399 C 9.419281,7.8032568 9.408286,7.6311507 9.505263,7.5506518 Z" /><path
       id="path1"
       style="fill-rule:evenodd;stroke-width:0.0346335;paint-order:markers fill stroke"
       d="m 5.8059733,11.722073 c -0.5513313,0.175645 -1.8210602,1.132218 -1.7443026,1.964701 0.034971,0.379289 0.566151,0.647459 0.9253551,0.521659 C 5.3542191,14.079836 5.6879933,13.700091 5.5825032,13.13534 5.477013,12.57059 6.3574553,11.547232 5.8059733,11.722073"
       sodipodi:nodetypes="caasc" /><path
       id="path1-7"
       style="fill-rule:evenodd;stroke-width:0.0368342;paint-order:markers fill stroke"
       d="m 8.9308551,9.158508 c -0.6102105,-0.02812 -2.1498073,0.465121 -2.2732706,1.335203 -0.056251,0.396419 0.4252752,0.865619 0.825604,0.872455 0.4092327,0.0069 0.8451489,-0.252343 0.8739216,-0.862527 0.028772,-0.610183 1.1839149,-1.31614 0.573745,-1.345131"
       sodipodi:nodetypes="caasc" /><path
       id="path1-3"
       style="fill-rule:evenodd;stroke-width:0.0346335;paint-order:markers fill stroke"
       d="m 7.8717407,12.860452 c -0.40921,0.409104 -1.0982472,1.841752 -0.6479592,2.546137 0.2051559,0.320926 0.8001645,0.315378 1.061558,0.03874 0.2672073,-0.282788 0.3894526,-0.773367 0.036521,-1.226699 -0.3529312,-0.453331 -0.040407,-1.766638 -0.45012,-1.35818"
       sodipodi:nodetypes="caasc" /></g><g
     inkscape:groupmode="layer"
     id="layer2"
     inkscape:label="Ebene 2"><path
       style="fill:#6a4d6e;fill-opacity:1;stroke-width:1"
       d="m 10.435202,22.118821 c -1.9921893,-0.0764 -3.9517393,-0.3712 -5.2508692,-0.78995 -1.1724601,-0.37793 -2.0313301,-0.81736 -2.3997601,-1.22782 -0.76162,-0.84848 -0.0688,-1.69981 1.81866,-2.23485 0.5680901,-0.16104 1.0366101,-0.29735 1.0458601,-0.30429 0.005,-0.003 -0.0524,-0.12684 -0.12641,-0.27436 -0.074,-0.14751 -0.13091,-0.2716 -0.1264,-0.27575 0.0104,-0.01 0.5397,0.20743 0.56311,0.23084 0.01,0.01 -0.002,0.0249 -0.0258,0.034 -0.0741,0.0284 -0.0491,0.0607 0.14315,0.18507 0.3962399,0.25633 0.8326499,0.41333 1.3767599,0.49529 0.3452,0.052 0.55313,0.0496 0.84064,-0.01 0.13005,-0.0269 0.23912,-0.0466 0.2424,-0.0439 0.003,0.003 -0.0602,0.0846 -0.14099,0.18196 -0.0808,0.0974 -0.14262,0.18099 -0.13732,0.1858 0.0233,0.0211 0.61444,0.093 0.8897,0.10823 0.3387195,0.0187 0.8545093,-0.0326 1.1755893,-0.11688 0.10475,-0.0275 0.19004,-0.0423 0.18952,-0.0329 -3e-4,0.009 -0.0178,0.0466 -0.0385,0.0828 -0.0206,0.0361 -0.038,0.0763 -0.0385,0.0892 -0.002,0.0419 0.88435,-0.003 1.21932,-0.0613 0.26885,-0.0471 0.571,-0.12239 0.71852,-0.179 0.03,-0.0115 0.036,-0.004 0.0229,0.0284 -0.01,0.0242 -0.0255,0.0633 -0.035,0.0868 -0.0155,0.0384 0.004,0.0409 0.19046,0.0236 0.42946,-0.0399 0.91274,-0.19885 1.363635,-0.44846 0.43036,-0.23825 0.87729,-0.44913 1.13983,-0.53782 l 0.246629,-0.0833 0.063,0.0747 c 0.26498,0.31432 0.6916,0.89667 0.6916,0.94405 0,0.0398 -0.30807,0.39082 -0.51484,0.58654 -0.492839,0.46652 -0.920609,0.76979 -1.260579,0.89369 -0.636055,0.23181 -1.620995,0.34274 -3.045165,0.34296 -1.8934198,2.3e-4 -3.0337293,-0.15979 -3.6512993,-0.51254 -0.48872,-0.27916 -1.10181,-0.83025 -1.4807699,-1.33105 -0.10587,-0.13991 -0.20618,-0.24994 -0.2229,-0.24452 -0.0167,0.005 -0.19592,0.0512 -0.3982,0.10172 -1.1489201,0.28696 -1.9225501,0.67027 -2.1211901,1.05097 -0.0714,0.13681 -0.0758,0.3606 -0.01,0.4854 0.39263,0.74061 2.5072601,1.38618 5.38838,1.64501 0.8705795,0.0782 1.2211095,0.0947 2.3380493,0.10994 3.248085,0.0444 6.097224,-0.34353 7.665595,-1.04366 0.32125,-0.1434 0.68207,-0.37296 0.80336,-0.51109 0.18038,-0.20545 0.23599,-0.44903 0.14967,-0.65563 -0.0895,-0.21432 -0.39381,-0.46066 -0.81599,-0.66064 -0.23019,-0.10905 -0.92264,-0.35244 -1.11422,-0.39166 l -0.0893,-0.0183 0.0178,0.10146 c 0.01,0.0558 0.0251,0.29237 0.0341,0.52571 0.0237,0.61581 -0.0274,0.82831 -0.25154,1.04517 -0.0587,0.0569 -0.11099,0.0982 -0.11607,0.092 -0.005,-0.006 -0.0473,-0.12193 -0.0938,-0.25699 -0.253011,-0.73501 -0.792501,-1.76073 -1.243771,-2.36476 -0.23745,-0.31784 -0.84791,-0.93285 -1.176099,-1.18489 -0.54744,-0.4204 -1.031414,-0.71626 -1.760105,-1.07597 -2.17954,-1.07589 -4.8229193,-1.56508 -6.7120393,-1.24213 l -0.2626999,0.0449 0.1576299,0.006 c 1.82417,0.068 3.2109895,0.29296 4.6104093,0.74793 1.58606,0.51566 2.896911,1.25669 3.949545,2.23273 l 0.25858,0.23976 -0.20833,0.0601 c -0.39456,0.11391 -0.62767,0.21734 -1.241425,0.55082 -0.34827,0.18924 -0.77534,0.37435 -0.80205,0.34764 -0.007,-0.007 0.0281,-0.11087 0.079,-0.22981 0.0509,-0.11894 0.0926,-0.21943 0.0926,-0.22333 0,-0.004 -0.0996,0.0447 -0.22145,0.1079 -0.50656,0.26297 -1.10461,0.4322 -1.75483,0.49656 l -0.17678,0.0175 0.0651,-0.19133 c 0.0358,-0.10523 0.0607,-0.19568 0.0554,-0.20099 -0.005,-0.005 -0.0703,0.0142 -0.14429,0.0434 -0.18062,0.0712 -0.54466,0.17168 -0.81794,0.22577 -0.2595098,0.0514 -1.2251393,0.083 -1.2850293,0.0421 -0.0315,-0.0215 -0.0281,-0.0503 0.0219,-0.18752 0.0325,-0.0892 0.0532,-0.16806 0.0459,-0.17533 -0.007,-0.007 -0.16616,3.6e-4 -0.3531,0.017 -0.61929,0.0551 -1.26179,-0.0568 -1.9236,-0.33501 -0.12281,-0.0516 -0.22775,-0.0973 -0.23319,-0.10142 -0.005,-0.004 0.0404,-0.0676 0.10184,-0.14099 0.0614,-0.0734 0.10699,-0.1382 0.1012,-0.14399 -0.006,-0.006 -0.15211,-0.0421 -0.32514,-0.0807 -0.9293899,-0.20719 -1.3869899,-0.4289 -1.72702,-0.83674 l -0.13353,-0.16016 0.10309,-0.006 c 0.13582,-0.009 0.3956001,-0.0548 0.5083201,-0.0904 l 0.09,-0.0284 -0.14329,-0.0443 c -0.4564101,-0.14122 -0.8296901,-0.47806 -1.1498901,-1.03766 -0.0741,-0.12943 -0.13466,-0.24469 -0.13466,-0.25613 0,-0.0114 0.0394,-0.0208 0.0876,-0.0208 0.11002,0 0.38529,-0.0543 0.38529,-0.076 0,-0.009 -0.0351,-0.0318 -0.078,-0.0508 -0.11707,-0.0518 -0.3302,-0.25391 -0.45863,-0.43491 -0.21459,-0.30237 -0.3948,-0.6995 -0.76435,-1.68439 -0.34782,-0.92695 -0.68496,-1.612021 -0.92486,-1.879291 l -0.11078,-0.12387 0.26875,-0.0944 c 1.49614,-0.5255596 3.4956101,-0.8362596 6.40283,-0.9949496 0.84846,-0.0463 4.4514893,-0.0458 5.2671693,7.8e-4 2.581844,0.14739 4.348725,0.39997 4.991315,0.71352 0.41527,0.2026396 0.5123,0.3363896 0.5123,0.7062596 v 0.234791 l 0.19739,-0.0506 c 0.41973,-0.10753 0.93655,-0.11073 1.332,-0.008 0.70821,0.18352 1.19352,0.64545 1.35083,1.28575 0.0691,0.28116 0.0621,0.80005 -0.0149,1.10335 -0.16435,0.64784 -0.48469,1.18369 -1.03744,1.73538 -0.50863,0.50764 -1.16576,0.95935 -1.94615,1.33777 -1.41672,0.68698 -1.47777,0.71879 -1.53588,0.8004 l -0.0584,0.0819 0.0914,0.28148 0.0914,0.28149 0.28536,0.0864 c 1.4545,0.44061 1.99877,0.69409 2.38416,1.11036 0.21074,0.22762 0.26558,0.35766 0.26525,0.62897 -2.1e-4,0.19407 -0.0103,0.24313 -0.0768,0.37486 -0.15059,0.2984 -0.46949,0.58623 -0.94751,0.85515 -0.66848,0.37608 -1.81267,0.78436 -2.739321,0.97747 -1.936119,0.40349 -4.190874,0.5792 -6.363304,0.4959 z m 6.515014,-4.25332 c 0,-0.0144 -0.0193,-0.0263 -0.0429,-0.0263 -0.0761,0 -0.21309,-0.10348 -0.25556,-0.19298 -0.0544,-0.11465 -0.018,-0.25211 0.091,-0.34387 0.044,-0.037 0.088,-0.0673 0.0978,-0.0672 0.01,1.1e-4 0.0809,0.11893 0.15814,0.26411 l 0.14045,0.26397 0.0821,-0.0633 c 0.255881,-0.19732 0.254731,-0.4633 -0.003,-0.63866 -0.34351,-0.23394 -0.89575,0.10998 -0.79247,0.49353 0.0328,0.12176 0.12798,0.2376 0.24106,0.29333 0.0953,0.047 0.28312,0.0585 0.28312,0.0174 z m 0.0809,-0.51268 c -0.0454,-0.0805 -0.0756,-0.15764 -0.067,-0.17147 0.0291,-0.0471 0.23738,-0.0289 0.286171,0.0251 0.0689,0.0762 0.0443,0.1875 -0.0541,0.24476 l -0.0825,0.048 z m -0.68769,-0.26544 c -0.0163,-0.0196 -0.0237,-0.0509 -0.0165,-0.0696 0.007,-0.0187 0.24484,-0.19216 0.52813,-0.38544 l 0.515071,-0.35144 -0.11143,-0.12429 c -0.122301,-0.13642 -0.166601,-0.14796 -0.158981,-0.0414 0.004,0.057 -0.0196,0.0863 -0.12922,0.16012 -0.12892,0.0868 -0.17788,0.0963 -0.17788,0.0346 0,-0.0615 -0.1436,-0.2126 -0.24652,-0.25934 -0.20717,-0.0941 -0.40746,-0.0528 -0.57346,0.11807 -0.0999,0.10291 -0.16854,0.28987 -0.13971,0.38073 0.0304,0.0958 0.14331,0.20804 0.24204,0.24062 0.0779,0.0257 0.0872,0.0357 0.0517,0.0556 -0.0652,0.0365 -0.0534,0.0751 0.0647,0.21298 0.0867,0.10114 0.11492,0.11969 0.14464,0.095 0.0278,-0.023 0.0296,-0.0395 0.007,-0.0662 z m -0.1719,-0.35126 c -0.0727,-0.0293 -0.14073,-0.12715 -0.14073,-0.2022 0,-0.12157 0.27437,-0.34971 0.42058,-0.34971 0.11431,0 0.28872,0.13555 0.28872,0.2244 0,0.0284 -0.39904,0.31251 -0.47391,0.33747 -0.0211,0.007 -0.0637,0.002 -0.0947,-0.01 z m -0.44494,-0.57586 c 0.0648,-0.0716 0.0446,-0.18865 -0.0408,-0.23636 -0.062,-0.0346 -0.0764,-0.034 -0.13792,0.006 -0.0455,0.0298 -0.0687,0.0686 -0.0687,0.11458 0,0.145 0.15519,0.21739 0.24746,0.11543 z m 2.465881,-0.37152 c 1.11635,-0.36656 2.158,-1.21248 2.6378,-2.14214 0.36285,-0.70308 0.35943,-1.36781 -0.009,-1.7364 -0.33506,-0.33525 -1.01678,-0.4409 -1.6567,-0.25674 -0.12782,0.0368 -0.13789,0.0458 -0.1534,0.13747 -0.0406,0.24017 -0.20487,0.9501 -0.30272,1.30843 -0.24264,0.88855 -0.67168,2.00978 -0.98439,2.57258 -0.069,0.1241 -0.0818,0.16791 -0.0603,0.20602 0.0346,0.0613 0.10786,0.0489 0.52863,-0.0892 z m -2.680701,0.0106 c 0.0405,-0.025 0.0179,-0.0505 -0.05,-0.0561 -0.19291,-0.016 -0.354939,-0.22102 -0.29975,-0.37935 0.0161,-0.046 0.0479,-0.11231 0.0708,-0.14725 l 0.0416,-0.0635 0.22015,0.219 c 0.24177,0.24052 0.23373,0.23932 0.33654,0.0502 0.10141,-0.1865 0.0395,-0.40553 -0.14209,-0.50293 -0.0985,-0.0528 -0.29663,-0.0644 -0.40386,-0.0236 -0.0992,0.0377 -0.282249,0.21321 -0.322349,0.309 -0.0697,0.16649 -0.0198,0.39127 0.11365,0.51195 0.117239,0.10601 0.331579,0.14669 0.435279,0.0826 z m -0.015,-0.57002 -0.12472,-0.14599 0.067,-0.0439 c 0.20626,-0.13515 0.39597,0.069 0.24241,0.26092 l -0.06,0.075 z m -0.712439,0.007 c 0.01,-0.0157 0.004,-0.0417 -0.0116,-0.0578 -0.0549,-0.0549 -0.0292,-0.10469 0.16374,-0.31783 0.10614,-0.11724 0.206629,-0.23899 0.223299,-0.27055 0.10282,-0.1946 -0.0758,-0.42862 -0.327099,-0.42862 -0.0958,0 -0.0965,-8.4e-4 -0.0496,-0.0527 0.0263,-0.029 0.0428,-0.0565 0.0369,-0.0611 -0.006,-0.005 -0.0804,-0.0469 -0.16546,-0.094 -0.12033,-0.0667 -0.1594,-0.078 -0.17599,-0.0512 -0.0129,0.0208 -0.005,0.0528 0.0204,0.0806 0.0481,0.0531 0.0647,0.0254 -0.21379,0.35669 -0.16323,0.19418 -0.19162,0.21687 -0.26291,0.21017 -0.0491,-0.005 -0.0799,0.005 -0.0799,0.0243 0,0.0339 0.3123,0.29659 0.35259,0.29659 0.0415,0 0.0492,-0.064 0.0127,-0.10615 -0.0302,-0.0348 -0.007,-0.0764 0.16583,-0.29718 0.1806,-0.23078 0.20772,-0.2551 0.26836,-0.24075 0.10768,0.0255 0.19812,0.10489 0.20728,0.18198 0.009,0.0784 -0.0396,0.15247 -0.26061,0.39425 -0.11072,0.12114 -0.14887,0.14732 -0.1971,0.13521 -0.11587,-0.0291 -0.0927,0.0424 0.0592,0.1826 0.15597,0.14394 0.20214,0.16676 0.2338,0.11554 z m 1.602219,-0.34334 c -0.28637,-0.9183 -0.70257,-1.66149 -1.261199,-2.25207 -0.53777,-0.56852 -1.384804,-1.11692 -2.191485,-1.41884 l -0.27283,-0.10212 0.35164,-0.0166 c 0.1934,-0.009 0.5999,-0.0284 0.903325,-0.0428 1.312029,-0.0622 2.584079,-0.20768 3.304949,-0.378011 0.319641,-0.0755 0.808151,-0.23266 0.934911,-0.30071 l 0.0892,-0.0479 -0.29934,-0.0949 C 16.587886,9.8085504 13.829273,9.5551004 10.986892,9.5997004 c -2.0150493,0.0316 -3.2232293,0.13735 -4.4938493,0.3933 l -0.4318099,0.087 0.6042199,0.0177 c 1.70023,0.0498 3.1785395,0.30184 4.6760893,0.797201 1.8226,0.60287 3.217205,1.57679 4.246124,2.96528 0.10738,0.1449 0.34117,0.49115 0.51954,0.76944 0.17837,0.27829 0.32957,0.50071 0.33601,0.49427 0.006,-0.006 -0.019,-0.11035 -0.0566,-0.2309 z m -2.516529,-0.44527 c -0.0253,-0.0144 -0.046,-0.0416 -0.046,-0.0605 0,-0.0189 0.101114,-0.17981 0.224704,-0.35755 0.12358,-0.17773 0.22701,-0.33332 0.22986,-0.34574 0.003,-0.0124 -0.0654,-0.0517 -0.15171,-0.0872 -0.17256,-0.071 -0.24252,-0.0536 -0.15831,0.0394 0.0479,0.0529 0.0467,0.0567 -0.0659,0.21735 -0.274765,0.39197 -0.270205,0.38708 -0.354095,0.38014 -0.14317,-0.0118 -0.10437,0.0646 0.0982,0.19343 0.165651,0.10535 0.195541,0.11626 0.229825,0.0839 0.0349,-0.033 0.0342,-0.0402 -0.007,-0.0633 z m -0.464995,-0.3788 c 0.10926,-0.0565 0.0963,-0.0913 -0.0341,-0.0914 -0.21176,-1.7e-4 -0.36062,-0.15965 -0.32443,-0.34755 0.0327,-0.16994 0.0413,-0.17059 0.31344,-0.0239 0.13782,0.0743 0.25597,0.13508 0.26257,0.13508 0.0231,0 0.0965,-0.21198 0.0965,-0.27896 0,-0.18415 -0.183551,-0.35152 -0.385501,-0.35152 -0.31396,0 -0.58954,0.3613 -0.5061,0.66351 0.0721,0.26124 0.35917,0.40766 0.57766,0.29468 z m -0.0801,-0.59229 c -0.19391,-0.10669 -0.19868,-0.11406 -0.11586,-0.1792 0.10271,-0.0808 0.18392,-0.0947 0.26049,-0.0445 0.0734,0.0481 0.0903,0.18245 0.0327,0.25937 -0.0301,0.0401 -0.045,0.0372 -0.17728,-0.0357 z m -0.67269,0.24914 c 0.01,-0.0255 -0.007,-0.06 -0.0423,-0.0889 l -0.0583,-0.0472 0.29465,-0.59616 c 0.16207,-0.32789 0.29467,-0.6049 0.29467,-0.61559 0,-0.0196 -0.25443,-0.10783 -0.31099,-0.10783 -0.0429,0 -0.0379,0.0533 0.01,0.10618 0.0369,0.0407 0.0167,0.0915 -0.22987,0.58002 -0.25919,0.51342 -0.27322,0.53505 -0.3425,0.5278 -0.055,-0.006 -0.072,0.004 -0.0711,0.0394 9.1e-4,0.0322 0.0646,0.0772 0.2036,0.14346 0.23845,0.11365 0.23179,0.1121 0.25223,0.0588 z m -0.52439,-0.23905 c 0.0103,-0.0269 9.1e-4,-0.0532 -0.0235,-0.067 -0.0222,-0.0125 -0.0405,-0.0434 -0.0405,-0.0688 0,-0.0499 0.1221,-0.36899 0.34884,-0.91157 l 0.14333,-0.34298 -0.1607,-0.0423 c -0.17923,-0.0472 -0.23749,-0.0264 -0.16146,0.0576 0.0468,0.0517 0.0431,0.0651 -0.15523,0.55886 -0.23486,0.58481 -0.25206,0.61644 -0.33359,0.61331 -0.0343,-10e-4 -0.064,0.0149 -0.0686,0.0374 -0.006,0.0283 0.0456,0.058 0.17775,0.10304 0.10223,0.0348 0.19192,0.0731 0.19931,0.085 0.0219,0.0353 0.056,0.0249 0.0743,-0.0226 z m 2.331155,-0.078 c 0.0899,-0.0814 0.0285,-0.24549 -0.0919,-0.24549 -0.0703,0 -0.14905,0.0739 -0.14905,0.13992 0,0.12591 0.14719,0.19041 0.24093,0.10557 z m -2.847535,-0.18812 c 0.006,-0.019 -0.0135,-0.0411 -0.0439,-0.049 -0.0304,-0.008 -0.0553,-0.0216 -0.0553,-0.0303 0,-0.009 0.0427,-0.16225 0.0949,-0.34123 0.11613,-0.39802 0.10838,-0.45991 -0.069,-0.55142 -0.16366,-0.0844 -0.39139,-0.0717 -0.49051,0.0274 -0.0423,0.0423 -0.062,0.0842 -0.052,0.11048 0.0315,0.082 0.0948,0.0748 0.20301,-0.023 0.0803,-0.0725 0.12053,-0.0919 0.164,-0.079 0.11047,0.0328 0.13984,0.10628 0.10734,0.26876 l -0.0159,0.0796 -0.2447,0.009 c -0.21278,0.008 -0.25316,0.017 -0.30953,0.07 -0.12052,0.1133 -0.10297,0.32525 0.033,0.398 0.0764,0.0409 0.24478,0.0324 0.31361,-0.0158 0.06,-0.0421 0.0606,-0.0417 0.0286,0.0179 -0.0285,0.0532 -0.025,0.0669 0.028,0.10975 0.0706,0.0572 0.28946,0.0563 0.30842,-10e-4 z m -0.47285,-0.22595 c -0.0707,-0.0351 -0.0902,-0.13933 -0.0391,-0.20923 0.049,-0.0669 0.32481,-0.0989 0.3002,-0.0348 -0.009,0.0228 -0.0285,0.0882 -0.0439,0.14521 -0.0312,0.11578 -0.11036,0.15179 -0.21726,0.0988 z m -6.6969293,0.16695 c 0.15166,-0.0325 0.3495901,-0.15044 0.4117301,-0.24528 0.0239,-0.0365 0.0443,-0.11992 0.0453,-0.18544 0.003,-0.22479 -0.1424,-0.29018 -0.4731301,-0.21221 -0.20996,0.0495 -0.2536,0.0375 -0.23834,-0.0655 0.007,-0.0462 0.0359,-0.0662 0.13098,-0.0903 0.16527,-0.0418 0.25583,-0.10579 0.30033,-0.21229 0.0474,-0.11354 0.047,-0.21579 -0.001,-0.30835 -0.0372,-0.0713 -0.0362,-0.0735 0.0396,-0.0887 0.0599,-0.012 0.0777,-0.0298 0.0777,-0.0779 0,-0.0732 -0.0412,-0.0788 -0.17311,-0.0237 -0.0607,0.0254 -0.13278,0.0332 -0.20932,0.0227 -0.14648,-0.0201 -0.31493,0.0403 -0.42091,0.15096 -0.14248,0.14872 -0.0868,0.39672 0.11193,0.49838 l 0.0798,0.0408 -0.074,0.10364 c -0.10911,0.15272 -0.0918,0.2744 0.0391,0.2744 0.0454,0 0.0413,0.0107 -0.0315,0.0819 -0.12136,0.11866 -0.10523,0.24401 0.0417,0.32372 0.0863,0.0468 0.17099,0.0501 0.34354,0.0131 z m -0.2281,-0.11905 c -0.0484,-0.0339 -0.0583,-0.0621 -0.0518,-0.14838 0.009,-0.1261 0.0255,-0.13643 0.27993,-0.1801 0.22442,-0.0385 0.2756001,-0.0202 0.2879001,0.10329 0.0187,0.1878 -0.3436301,0.34593 -0.5160101,0.22519 z m -0.0247,-0.79009 c -0.10774,-0.0434 -0.1513,-0.35822 -0.0609,-0.44004 0.069,-0.0625 0.18287,-0.0435 0.24561,0.0409 0.0746,0.10032 0.0919,0.29859 0.032,0.36486 -0.0442,0.0489 -0.14199,0.0644 -0.21669,0.0343 z m 6.4615093,0.65463 c 0.0862,-0.10038 0.0842,-0.11598 -0.0129,-0.0978 -0.11371,0.0213 -0.20223,-0.0224 -0.20284,-0.10016 -9e-4,-0.10421 0.14256,-0.59673 0.17371,-0.59673 0.0166,0 0.0809,0.0179 0.14278,0.0397 0.0619,0.0218 0.11495,0.0366 0.11797,0.0328 0.0153,-0.0191 0.0651,-0.12356 0.0651,-0.13647 0,-0.008 -0.0278,-0.0149 -0.0618,-0.0149 -0.034,0 -0.0999,-0.0133 -0.14651,-0.0296 -0.0866,-0.0302 -0.0913,-0.0539 -0.0386,-0.19131 0.0274,-0.0715 -0.12755,-0.053 -0.19972,0.0238 -0.0339,0.0361 -0.0892,0.0657 -0.12279,0.0657 -0.0336,0 -0.0611,0.005 -0.0611,0.011 0,0.006 -0.007,0.0281 -0.0146,0.0491 -0.009,0.0242 0.006,0.0436 0.0428,0.0531 0.0331,0.009 0.0519,0.0296 0.0445,0.0494 -0.007,0.0189 -0.0521,0.16799 -0.1,0.33125 -0.0994,0.33912 -0.0932,0.39972 0.0512,0.49702 0.10828,0.073 0.2661,0.0798 0.32264,0.0139 z m -0.63595,-0.19396 c 1.2e-4,-0.009 -0.0232,-0.0228 -0.0521,-0.0304 -0.0289,-0.008 -0.0525,-0.0358 -0.0525,-0.0628 0,-0.0404 0.0558,-0.32244 0.14854,-0.75057 0.0156,-0.072 0.0151,-0.0722 -0.12998,-0.0722 -0.0801,0 -0.16431,-0.007 -0.18717,-0.016 -0.0298,-0.0114 -0.0416,-2.8e-4 -0.0416,0.0394 0,0.0322 0.0168,0.0554 0.0402,0.0554 0.0688,0 0.0709,0.0653 0.0116,0.35923 -0.0667,0.33031 -0.0835,0.36971 -0.16311,0.38107 -0.0324,0.005 -0.0628,0.0291 -0.0677,0.0544 -0.007,0.0359 0.0103,0.0465 0.0785,0.0485 0.048,10e-4 0.15233,0.0163 0.2318,0.0331 0.13504,0.0286 0.18209,0.0185 0.18349,-0.0392 z m -0.7277593,-0.0848 c 0.088199,-0.0373 0.1949295,-0.13842 0.1712095,-0.16214 -0.008,-0.007 -0.0464,-0.001 -0.0863,0.0139 -0.0824,0.0313 -0.2358095,0.01 -0.3195495,-0.0445 -0.0742,-0.0483 -0.11991,-0.16313 -0.10953,-0.27536 l 0.008,-0.0903 0.27583,0.0442 c 0.1517095,0.0243 0.2861895,0.0382 0.2988495,0.0308 0.0404,-0.0235 -0.003,-0.29111 -0.0609,-0.37192 -0.1108,-0.15559 -0.3769695,-0.17277 -0.5496895,-0.0355 -0.14918,0.1186 -0.21888,0.27642 -0.20769,0.47027 0.0112,0.1948 0.1004,0.33047 0.26685,0.40606 0.12961,0.0589 0.20002,0.0621 0.31257,0.0145 z m -0.17159,-0.62733 c -0.17513,-0.03 -0.18938,-0.0645 -0.0743,-0.17956 0.0852,-0.0852 0.1857,-0.0995 0.24971,-0.0355 0.0503,0.0503 0.0572,0.24932 0.008,0.24432 -0.018,-0.002 -0.1008095,-0.015 -0.1838895,-0.0292 z m -3.6366999,0.52855 c 0.0316,-0.0162 0.0899,-0.0598 0.12963,-0.0969 0.0719,-0.067 0.0722,-0.0671 0.0722,-0.009 0,0.0833 0.0461,0.0905 0.21025,0.0328 0.16327,-0.0574 0.21121,-0.13379 0.0839,-0.13379 -0.0962,0 -0.10565,-0.0375 -0.1285,-0.50768 -0.0142,-0.292 -0.0219,-0.3351 -0.0582,-0.32323 -0.20994,0.0687 -0.29139,0.10676 -0.29139,0.13603 0,0.019 0.0266,0.0382 0.0591,0.0429 0.0557,0.008 0.0605,0.0256 0.0827,0.30843 0.0231,0.29354 0.0223,0.30106 -0.0358,0.34808 -0.0326,0.0264 -0.0976,0.048 -0.14431,0.048 -0.14532,0 -0.17383,-0.0606 -0.20923,-0.44469 -0.0173,-0.18822 -0.0367,-0.34637 -0.0431,-0.35143 -0.0289,-0.0231 -0.33992,0.0945 -0.33992,0.12851 0,0.0204 0.0222,0.0371 0.0493,0.0371 0.0782,0 0.10045,0.0514 0.11937,0.27584 0.0256,0.30386 0.0558,0.41243 0.1335,0.47943 0.0754,0.065 0.21536,0.0784 0.31031,0.0296 z m 3.0473899,-0.13702 c 0.0243,-0.0771 0.0442,-0.1662 0.0442,-0.19795 0,-0.0517 -0.006,-0.0544 -0.0591,-0.0262 -0.0325,0.0173 -0.10048,0.0774 -0.15105,0.13357 -0.0912,0.10124 -0.0931,0.10191 -0.22852,0.0811 l -0.13657,-0.021 0.32817,-0.38087 0.32816,-0.38087 -0.25727,-0.0299 c -0.1415,-0.0165 -0.32329,-0.0386 -0.40399,-0.0491 l -0.14672,-0.0192 -0.0458,0.16309 c -0.0251,0.0897 -0.0406,0.16827 -0.0343,0.1746 0.027,0.027 0.14843,-0.0451 0.2014,-0.11948 0.052,-0.0731 0.0708,-0.0806 0.20011,-0.0806 0.0785,0 0.1427,0.007 0.1427,0.0152 0,0.008 -0.14778,0.18546 -0.3284,0.39354 -0.3728,0.42948 -0.37518,0.39178 0.0263,0.41763 0.13003,0.008 0.27189,0.0258 0.31524,0.0388 0.14482,0.0432 0.15877,0.0356 0.20536,-0.11218 z m -1.8902,0.007 c 0.0802,-0.0631 0.0985,-0.17402 0.0232,-0.14138 -0.0253,0.011 -0.0828,0.0252 -0.12792,0.0316 -0.073,0.0103 -0.0852,0.002 -0.11165,-0.0736 -0.0163,-0.0469 -0.0297,-0.20757 -0.0297,-0.35713 v -0.27191 h 0.14027 c 0.12537,0 0.14355,-0.007 0.17122,-0.0679 l 0.031,-0.0679 -0.17281,0.009 -0.17281,0.009 0.007,-0.0981 c 0.004,-0.054 -0.001,-0.0983 -0.0115,-0.0985 -0.11044,-0.002 -0.12394,0.005 -0.13992,0.0718 -0.02,0.0841 -0.0831,0.16419 -0.1293299,0.16419 -0.0177,0 -0.0385,0.0236 -0.046,0.0525 -0.0109,0.0418 -9e-4,0.0525 0.0495,0.0525 h 0.0632 v 0.34353 0.34353 l 0.0768,0.0768 c 0.0971,0.0971 0.2713,0.10737 0.37939,0.0223 z m 0.78906,0.0178 c 0.0891,-0.0372 0.17334,-0.1311 0.17334,-0.19318 0,-0.0268 -0.0168,-0.0255 -0.0775,0.006 -0.0901,0.0466 -0.27024,0.0526 -0.34678,0.0117 -0.0578,-0.0309 -0.15213,-0.21578 -0.15314,-0.29999 -6e-4,-0.05 0.014,-0.0521 0.30533,-0.0443 l 0.30596,0.008 -0.0171,-0.12644 c -0.0208,-0.15414 -0.0811,-0.24239 -0.20916,-0.30603 -0.18676,-0.0929 -0.4293,0.006 -0.53661,0.21821 -0.0692,0.13707 -0.0802,0.38331 -0.022,0.49466 0.11675,0.22348 0.36172,0.32157 0.5777,0.23133 z m -0.4046,-0.6477 c 0,-0.0533 0.0799,-0.18132 0.12989,-0.20807 0.0278,-0.0149 0.0741,-0.0271 0.10291,-0.0271 0.0659,0 0.16125,0.11854 0.16125,0.20056 0,0.0598 -0.007,0.0621 -0.19703,0.0621 -0.12005,0 -0.19702,-0.0108 -0.19702,-0.0276 z m 3.1248293,-0.2204 c 0.0539,-0.0649 0.0226,-0.18121 -0.0592,-0.22023 -0.1445898,-0.069 -0.2659198,0.0915 -0.1587098,0.21001 0.0519,0.0574 0.1740098,0.0631 0.2178998,0.0102 z M 7.2417127,8.5265604 c 0.061,-0.16641 0.12634,-0.48402 0.15275,-0.74217 0.0577,-0.56433 -0.0404,-1.20213 -0.30985,-2.01366 -0.19977,-0.60174 -0.24891,-0.82045 -0.26617,-1.18469 -0.0305,-0.64379 0.18183,-1.28565 0.61866,-1.87017 0.17248,-0.2308 0.31424,-0.37381 0.28149,-0.28399 -0.0659,0.18076 -0.17565,0.62764 -0.21386,0.87073 -0.0826,0.52547 -0.0333,0.82515 0.25666,1.55926 0.39436,0.99859 0.46954,1.65261 0.2703,2.35167 -0.0823,0.28884 -0.28467,0.71544 -0.45889,0.96746 -0.13972,0.20212 -0.36449,0.43671 -0.33109,0.34556 z m 3.0632593,-0.0944 c -6e-4,-0.009 0.0219,-0.0826 0.0501,-0.16453 0.12972,-0.37703 0.17174,-0.68405 0.17128,-1.2516 -6.1e-4,-0.67291 -0.0292,-0.81707 -0.35772,-1.79951 -0.3141298,-0.93944 -0.3634198,-1.15481 -0.3817398,-1.66816 -0.0109,-0.30704 -0.004,-0.46533 0.0268,-0.64362 0.10632,-0.60801 0.4022998,-1.21384 0.8509098,-1.74166 0.0651,-0.0765 0.12284,-0.13464 0.12839,-0.12909 0.006,0.006 -0.014,0.08 -0.0436,0.16545 -0.0809,0.23429 -0.20154,0.73218 -0.23681,0.97762 -0.0189,0.13164 -0.0262,0.37105 -0.0183,0.60421 0.0147,0.43599 0.0657,0.65109 0.2574,1.0868 0.38683,0.87909 0.44556,1.0335 0.53777,1.41412 0.0674,0.27813 0.0809,0.8861 0.0269,1.20922 -0.11156,0.66719 -0.42876,1.33268 -0.85116,1.78574 -0.0875,0.0938 -0.15958,0.16359 -0.16022,0.15501 z m 3.38861,-0.0525 c -3.1e-4,-0.009 0.0227,-0.0843 0.0516,-0.16826 0.126884,-0.36878 0.170844,-0.70241 0.169624,-1.28728 -0.002,-0.66718 -0.0312,-0.83039 -0.303085,-1.66114 -0.21789,-0.66571 -0.30195,-1.00518 -0.33795,-1.36481 -0.0705,-0.70376 0.13398,-1.45079 0.588215,-2.14927 0.15301,-0.2353 0.40654,-0.54937 0.42697,-0.52894 0.007,0.007 -0.0169,0.1057 -0.0539,0.2186 -0.17184,0.52464 -0.25347,0.96794 -0.25305,1.37428 3e-4,0.49562 0.0569,0.7034 0.43068,1.58619 0.24625,0.58164 0.3389,1.00497 0.33993,1.5531 3.1e-4,0.25676 -0.0136,0.43518 -0.0467,0.59107 -0.13021,0.61346 -0.46852,1.28083 -0.8559,1.6884 -0.0855,0.09 -0.155955,0.15664 -0.156455,0.14806 z"
       id="path2"
       inkscape:transform-center-x="-4.065864"
       inkscape:transform-center-y="-43.487067" /></g></svg>
