<?xml version="1.0" encoding="UTF-8"?>
<svg xmlns:ns0="http://www.inkscape.org/namespaces/inkscape" xmlns:ns1="http://sodipodi.sourceforge.net/DTD/sodipodi-0.dtd" viewBox="0 0 23 23" version="1.1" id="svg1" xml:space="preserve" ns0:version="1.4 (86a8ad7, 2024-10-11)" ns1:docname="Kunstlicht geeignet.svg" preserveAspectRatio="xMidYMid meet" xmlns="http://www.w3.org/2000/svg"><defs id="defs1"><linearGradient x1="69.982292" y1="167.08438" x2="69.056252" y2="164.70312" gradientUnits="userSpaceOnUse" gradientTransform="scale(2.834646)" spreadMethod="pad" id="linearGradient18"><stop style="stop-opacity:1;stop-color:#000000" offset="0" id="stop17" /><stop style="stop-opacity:0;stop-color:#000000" offset="1" id="stop18" /></linearGradient></defs><g ns0:label="Ebene 1" ns0:groupmode="layer" id="layer1" style="display:inline"><g id="g1"><rect style="font-variation-settings:normal;vector-effect:none;fill:#000000;fill-opacity:1;fill-rule:evenodd;stroke-width:0.0797285;stroke-linecap:butt;stroke-linejoin:miter;stroke-miterlimit:4;stroke-dasharray:none;stroke-dashoffset:0;stroke-opacity:1;-inkscape-stroke:none;stop-color:#000000" id="rect1" width="3.6620109" height="0.70448202" x="9.6416578" y="2.3486052" rx="0.99999994" ry="0.99999994" /><path id="path1" style="font-variation-settings:normal;fill:#000000;fill-opacity:1;fill-rule:evenodd;stroke:#000000;stroke-width:0.238223;stroke-linecap:butt;stroke-linejoin:round;stroke-miterlimit:4;stroke-dasharray:none;stroke-dashoffset:0;stroke-opacity:0.999123;paint-order:markers fill stroke;stop-color:#000000" d="M 11.259937,4.8457295 A 6.1033516,5.5423039 0 0 0 5.1996949,9.841714 6.3565888,2.2722318 0 0 1 11.265931,8.2344451 6.3565888,2.2722318 0 0 1 17.331692,9.828048 6.1033516,5.5423039 0 0 0 11.259937,4.8457295 Z" /><rect style="font-variation-settings:normal;vector-effect:none;fill:#000000;fill-opacity:1;fill-rule:evenodd;stroke-width:0.0797285;stroke-linecap:butt;stroke-linejoin:miter;stroke-miterlimit:4;stroke-dasharray:none;stroke-dashoffset:0;stroke-opacity:1;-inkscape-stroke:none;stop-color:#000000" id="rect1-8" width="3.6620109" height="0.70448202" x="9.6416578" y="3.229537" rx="0.99999994" ry="0.99999994" /><rect style="font-variation-settings:normal;vector-effect:none;fill:#000000;fill-opacity:1;fill-rule:evenodd;stroke-width:0.0797285;stroke-linecap:butt;stroke-linejoin:miter;stroke-miterlimit:4;stroke-dasharray:none;stroke-dashoffset:0;stroke-opacity:1;-inkscape-stroke:none;stop-color:#000000" id="rect1-5" width="3.6620109" height="0.70448202" x="9.6416578" y="4.0752163" rx="0.99999994" ry="0.99999994" /><path d="M 11.050428,2.9118994 C 10.760014,2.8677724 12.792891,1.7272812 10.877464,0.732856" fill="none" stroke="#000000" stroke-width="0.324439" id="path1-1" ns1:nodetypes="cc" /><ellipse style="font-variation-settings:normal;vector-effect:none;fill:#000000;fill-opacity:1;fill-rule:evenodd;stroke:#000000;stroke-width:0.119112;stroke-linecap:butt;stroke-linejoin:round;stroke-miterlimit:4;stroke-dasharray:none;stroke-dashoffset:0;stroke-opacity:0.999123;-inkscape-stroke:none;paint-order:markers fill stroke;stop-color:#000000" id="path3" cx="11.39335" cy="8.1611586" rx="2.136173" ry="2.0339842" /><path id="path3-7" style="fill:#000000;fill-opacity:1;fill-rule:evenodd;stroke:none;stroke-width:0.0183828" d="m 5.3538561,11.391151 c -0.208325,-0.0068 -0.38058,0.162685 -0.43579,0.468916 -0.06625,0.370274 0.05889,0.825351 0.292245,1.114429 -0.01472,-0.0065 -0.02945,-0.01472 -0.05153,-0.02208 l -0.0013,-4.42e-4 c -0.502042,-0.184769 -1.223598,-0.182561 -1.611319,0.0049 -0.3879413,0.186978 -0.2951887,0.488792 0.206853,0.672825 0.263535,0.09717 0.587433,0.142809 0.892413,0.13692 -0.318009,0.250285 -0.557252,0.59185 -0.583753,0.867679 -0.03681,0.36733 0.318745,0.478486 0.79171,0.248812 0.318745,-0.154587 0.610253,-0.425484 0.777502,-0.697116 v 4.882762 c 0,0.02945 0.0022,0.05153 0.005,0.05153 h 0.278258 c 0.0027,0 0.0049,-0.02208 0.0049,-0.05153 v -4.918318 c 0.186241,0.17888 0.427693,0.340093 0.682394,0.441679 0.494681,0.197284 0.861201,0.100114 0.834847,-0.220839 -0.02208,-0.276786 -0.330523,-0.635282 -0.732451,-0.877396 0.04417,-0.01472 0.09349,-0.02208 0.141337,-0.04417 0.535904,-0.173728 0.999962,-0.53296 1.065846,-0.823732 0.06625,-0.290772 -0.288564,-0.41665 -0.814457,-0.287827 -0.400455,0.09791 -0.796936,0.318008 -1.028449,0.555043 0.01472,-0.03681 0.02208,-0.07582 0.02945,-0.117781 l 2.21e-4,-0.0012 c 0.0795,-0.446096 -0.11999,-1.013433 -0.446096,-1.267619 -0.101586,-0.0795 -0.203909,-0.119253 -0.29887,-0.122198 z m 0.391623,1.688686 c 0.05889,0.001 0.111155,0.01472 0.15974,0.04417 l 4.42e-4,2.21e-4 c 0.129559,0.07508 0.15974,0.222312 0.06625,0.328314 -0.09202,0.106003 -0.271633,0.131032 -0.401192,0.05889 -0.129559,-0.07508 -0.160477,-0.222312 -0.06625,-0.328315 0.05889,-0.06625 0.149435,-0.10085 0.241451,-0.09938 z" /><path id="path15" style="fill:#000000;fill-opacity:1;fill-rule:evenodd;stroke:none;stroke-width:0.0189222" d="M 2.981451,17.535275 C 2.7238048,17.78924 2.5390357,18.446459 2.6450387,19.121712 H 9.187189 c 0.05889,-0.64706 -0.126615,-1.363831 -0.3732189,-1.632961 -0.246604,-0.269424 -0.663254,-0.06625 -0.663991,-0.06625 l -4.492097,0.08834 c -0.07582,0.0016 -0.4181225,-0.231881 -0.6757686,0.02208 z m -0.1855053,2.26066 c 0.3754273,1.322682 1.1502794,2.615182 1.1502794,2.615182 l 4.208392,-0.04417 c 0,0 0.647796,-1.269533 0.9265689,-2.568437 z" ns1:nodetypes="zcczzzzccccc" /><path id="path60" d="m 6.4778561,16.178363 c 1.406969,-0.32537 -0.54621,0.334204 -0.666935,0.368802 -0.574183,-0.02945 0.647796,-0.364385 0.666935,-0.368802 z" style="fill:#000000;fill-opacity:1;fill-rule:evenodd;stroke:none;stroke-width:0.0189222" /><path id="path60-8" d="m 4.9647371,16.636826 c -1.406969,-0.32537 0.54621,0.334204 0.666936,0.368802 0.574182,-0.02944 -0.647796,-0.364385 -0.666936,-0.368802 z" style="fill:#000000;fill-opacity:1;fill-rule:evenodd;stroke:none;stroke-width:0.0189222" /><path id="path61" d="m 6.4543001,16.076777 c 0.308439,-0.386469 0.646324,-0.87504 1.348593,-1.105817 0.70227,-0.231146 2.5130069,-0.494681 2.2105299,-0.11042 -0.30255,0.384261 -1.3485929,1.271299 -2.0532179,1.505463 -0.704479,0.23409 -1.802272,0.09349 -1.505905,-0.2893 l 1.272624,-0.415914 z" style="fill:#000000;fill-opacity:1;fill-rule:evenodd;stroke:none;stroke-width:0.0189222" /><path id="path62" d="m 4.8554221,16.472079 c -0.30844,-0.275313 -0.653685,-0.629392 -1.290513,-0.729506 -0.6367541,-0.10085 -2.2466743,-0.09202 -1.9434616,0.182561 0.3032863,0.273841 1.3071492,0.863777 1.9467746,0.966688 0.639698,0.103058 1.584891,-0.145754 1.2872,-0.418859 l -1.15455,-0.180352 z" style="fill:#000000;fill-opacity:1;fill-rule:evenodd;stroke:none;stroke-width:0.0189222" ns0:transform-center-x="-30" ns0:transform-center-y="-36.666667" /><path id="path15-2" style="fill:#000000;fill-opacity:1;fill-rule:evenodd;stroke:none;stroke-width:0.0189222" d="m 12.886326,17.482977 c -0.257646,0.253965 -0.442415,0.911184 -0.336412,1.586437 h 6.54215 c 0.05889,-0.64706 -0.126615,-1.363831 -0.373219,-1.632961 -0.246604,-0.269424 -0.663254,-0.06625 -0.663991,-0.06625 l -4.492097,0.08834 c -0.07582,0.0016 -0.418122,-0.231881 -0.675769,0.02208 z m -0.185505,2.26066 c 0.375427,1.322682 1.150279,2.615182 1.150279,2.615182 l 4.208392,-0.04417 c 0,0 0.647796,-1.269533 0.926569,-2.568437 z" ns1:nodetypes="zcczzzzccccc" /><path id="path60-2" d="m 17.480283,17.037547 c 1.162603,0.429414 -0.566258,-0.0019 -0.669671,-0.03366 -0.386152,-0.301727 0.654332,0.02798 0.669671,0.03366 z" style="fill:#000000;fill-opacity:1;fill-rule:evenodd;stroke:none;stroke-width:0.0171739" /><path id="path60-8-7" d="m 15.992001,16.915959 c -0.802021,-0.944885 0.195987,0.531264 0.261234,0.617534 0.41584,0.259285 -0.250643,-0.605072 -0.261234,-0.617534 z" style="fill:#000000;fill-opacity:1;fill-rule:evenodd;stroke:none;stroke-width:0.0171739" /><path id="path61-9" d="m 17.419985,16.975846 c 0.389595,-0.07621 0.854461,-0.199233 1.364425,0.02057 0.51001,0.219801 1.633098,0.987573 1.247893,1.065638 -0.385187,0.07812 -1.460511,0.0798 -1.973822,-0.139313 -0.513339,-0.219153 -1.01925,-0.866925 -0.638496,-0.94689 l 0.923155,0.399799 z" style="fill:#000000;fill-opacity:1;fill-rule:evenodd;stroke:#fffefe;stroke-width:0.0586266;stroke-dasharray:none;stroke-opacity:1" /><path id="path62-5" d="m 16.160306,17.054114 c -0.06312,-0.368593 -0.107625,-0.81762 -0.496592,-1.208394 -0.389032,-0.390815 -1.517662,-1.170047 -1.457882,-0.804827 0.05978,0.365237 0.433921,1.322712 0.823474,1.716661 0.389483,0.39396 1.187446,0.658355 1.131,0.29656 l -0.706018,-0.706909 z" style="fill:#000000;fill-opacity:1;fill-rule:evenodd;stroke:#fffefe;stroke-width:0.0586266;stroke-dasharray:none;stroke-opacity:1" ns0:transform-center-x="-30" ns0:transform-center-y="-36.666667" /><path id="path60-4" d="m 18.334531,15.819218 c 1.062124,0.438091 -0.503579,-0.03918 -0.597624,-0.0727 -0.363328,-0.27926 0.58361,0.06691 0.597624,0.0727 z" style="fill:#000000;fill-opacity:1;fill-rule:evenodd;stroke:none;stroke-width:0.0148037" /><path id="path60-4-8" d="m 18.60018,13.561183 c 0.394104,-1.079219 -0.01847,0.504762 -0.0481,0.600105 -0.264101,0.374491 0.04289,-0.585866 0.0481,-0.600105 z" style="fill:#000000;fill-opacity:1;fill-rule:evenodd;stroke:none;stroke-width:0.0148037" /><path id="path60-8-2" d="m 16.884216,15.872869 c -0.407513,-1.074227 0.02476,0.504494 0.05557,0.59946 0.268746,0.371172 -0.05018,-0.585286 -0.05557,-0.59946 z" style="fill:#000000;fill-opacity:1;fill-rule:evenodd;stroke:none;stroke-width:0.0148037" /><path id="path61-7" d="m 18.070898,15.672751 c 0.270538,-0.06704 0.587369,-0.169537 1.001007,-0.03327 0.413673,0.136272 1.377466,0.635285 1.110483,0.703476 -0.266961,0.06823 -1.052539,0.106986 -1.468497,-0.02869 -0.415985,-0.135702 -0.90637,-0.572154 -0.642993,-0.641521 l 0.749141,0.248026 z" style="fill:#000000;fill-opacity:1;fill-rule:evenodd;stroke:#fffefe;stroke-width:0.010752;stroke-opacity:1" /><path id="path62-7" d="m 16.333701,13.482752 c -0.09714,0.309327 -0.238795,0.66915 -0.109739,1.166205 0.129082,0.497123 0.640776,1.673653 0.739008,1.368605 0.09824,-0.305056 0.199121,-1.218949 0.07087,-1.718693 -0.128197,-0.499713 -0.600831,-1.116846 -0.70014,-0.816117 l 0.235177,0.90042 z" style="fill:#000000;fill-opacity:1;fill-rule:evenodd;stroke:#fffefe;stroke-width:0.0148037;stroke-opacity:1" ns0:transform-center-x="45.014294" ns0:transform-center-y="15.546442" /><path id="path62-7-0" d="m 18.503806,13.672813 c -0.01917,-0.201731 -0.06233,-0.443322 0.114437,-0.698563 0.176815,-0.255265 0.745333,-0.809586 0.766013,-0.610056 0.02068,0.199538 -0.05816,0.750562 -0.23479,1.007546 -0.176588,0.25698 -0.623476,0.498375 -0.645659,0.301073 l 0.32123,-0.462039 z" style="fill:#000000;fill-opacity:1;fill-rule:evenodd;stroke:none;stroke-width:0.0586266;stroke-dasharray:none" ns0:transform-center-x="31.014458" ns0:transform-center-y="17.422347" /><path id="path61-8" d="m 17.800573,14.465139 c -0.164794,-0.249821 -0.382774,-0.541298 -0.385936,-0.934137 -0.0032,-0.392872 0.17857,-1.316467 0.343312,-1.07002 0.164777,0.246423 0.480838,0.978945 0.485435,1.373925 0.0046,0.395007 -0.278107,0.873255 -0.442814,0.63023 l -0.0044,-0.711524 z" style="fill:#000000;fill-opacity:1;fill-rule:evenodd;stroke:#fffefe;stroke-width:0.0106977;stroke-opacity:1" /><path id="path62-7-8" d="m 18.998084,14.400744 c 0.327456,0.112609 0.715074,0.269341 1.174537,0.19429 0.45952,-0.07508 1.49882,-0.437861 1.175325,-0.551105 -0.323509,-0.113252 -1.247413,-0.278869 -1.709712,-0.204763 -0.462284,0.07406 -0.959643,0.447722 -0.64015,0.561578 l 0.831999,-0.137206 z" style="fill:#000000;fill-opacity:1;fill-rule:evenodd;stroke:#fffefe;stroke-width:0.0137702;stroke-opacity:1" ns0:transform-center-x="-21.166349" ns0:transform-center-y="34.038832" /><rect style="font-variation-settings:normal;vector-effect:none;fill:#000000;fill-opacity:1;fill-rule:evenodd;stroke-width:0.151497;stroke-linecap:butt;stroke-linejoin:miter;stroke-miterlimit:4;stroke-dasharray:none;stroke-dashoffset:0;stroke-opacity:1;-inkscape-stroke:none;stop-color:#000000" id="rect6" width="0.31023207" height="5.1047149" x="23.215124" y="0.98118377" transform="rotate(34.973686)" /><path id="path60-8-2-6" d="m 17.961897,14.590992 c -0.107516,-1.023167 -0.08961,0.473835 -0.08449,0.564078 0.144725,0.358658 0.08592,-0.550578 0.08449,-0.564078 z" style="fill:#000000;fill-opacity:1;fill-rule:evenodd;stroke:none;stroke-width:0.0132148" /><path id="path60-84" d="m 19.062351,14.204034 c 1.231718,-0.137535 -0.507002,0.252192 -0.613654,0.270222 -0.480453,-0.09652 0.597399,-0.268418 0.613654,-0.270222 z" style="fill:#000000;fill-opacity:1;fill-rule:evenodd;stroke:none;stroke-width:0.0171739" /><path id="path60-82" d="m 13.609755,16.554323 c -1.162604,0.429414 0.566258,-0.0019 0.66967,-0.03366 0.386152,-0.301727 -0.654332,0.02798 -0.66967,0.03366 z" style="fill:#000000;fill-opacity:1;fill-rule:evenodd;stroke:none;stroke-width:0.0171739" /><path id="path60-8-9" d="m 15.098037,16.432735 c 0.80202,-0.944885 -0.195987,0.531264 -0.261234,0.617534 -0.41584,0.259285 0.250642,-0.605072 0.261234,-0.617534 z" style="fill:#000000;fill-opacity:1;fill-rule:evenodd;stroke:none;stroke-width:0.0171739" /><path id="path61-1" d="m 13.670053,16.492622 c -0.389595,-0.07621 -0.854462,-0.199233 -1.364425,0.02057 -0.51001,0.219801 -1.633098,0.987573 -1.247894,1.065638 0.385187,0.07812 1.460511,0.0798 1.973823,-0.139313 0.513338,-0.219153 1.01925,-0.866925 0.638496,-0.94689 l -0.923156,0.399799 z" style="fill:#000000;fill-opacity:1;fill-rule:evenodd;stroke:#fffefe;stroke-width:0.0586266;stroke-dasharray:none;stroke-opacity:1" /><path id="path62-3" d="m 14.929731,16.570891 c 0.06312,-0.368595 0.107626,-0.817621 0.496592,-1.208395 0.389033,-0.390815 1.517662,-1.170047 1.457882,-0.804827 -0.05978,0.365237 -0.43392,1.322712 -0.823474,1.716661 -0.389482,0.39396 -1.187445,0.658355 -1.131,0.296561 l 0.706018,-0.70691 z" style="fill:#000000;fill-opacity:1;fill-rule:evenodd;stroke:#fffefe;stroke-width:0.0586266;stroke-dasharray:none;stroke-opacity:1" ns0:transform-center-x="-30" ns0:transform-center-y="-36.666667" /><path id="path60-4-5" d="m 12.755507,15.335994 c -1.062124,0.438091 0.503578,-0.03918 0.597623,-0.0727 0.363328,-0.27926 -0.58361,0.06691 -0.597623,0.0727 z" style="fill:#000000;fill-opacity:1;fill-rule:evenodd;stroke:none;stroke-width:0.0148037" /><path id="path60-4-8-9" d="m 12.489857,13.077959 c -0.394103,-1.079219 0.01847,0.504762 0.0481,0.600105 0.264101,0.374491 -0.04289,-0.585866 -0.0481,-0.600105 z" style="fill:#000000;fill-opacity:1;fill-rule:evenodd;stroke:none;stroke-width:0.0148037" /><path id="path60-8-2-8" d="m 14.205821,15.389645 c 0.407513,-1.074227 -0.02476,0.504494 -0.05557,0.59946 -0.268746,0.371172 0.05018,-0.585286 0.05557,-0.59946 z" style="fill:#000000;fill-opacity:1;fill-rule:evenodd;stroke:none;stroke-width:0.0148037" /><path id="path61-7-4" d="m 13.019139,15.189527 c -0.270538,-0.06704 -0.587369,-0.169537 -1.001007,-0.03327 -0.413673,0.136272 -1.377466,0.635285 -1.110482,0.703476 0.266961,0.06823 1.052539,0.106986 1.468496,-0.02869 0.415986,-0.135702 0.90637,-0.572154 0.642993,-0.641521 l -0.749141,0.248026 z" style="fill:#000000;fill-opacity:1;fill-rule:evenodd;stroke:none;stroke-width:0.010752" /><path id="path62-7-07" d="m 14.756337,12.999528 c 0.09713,0.309327 0.238795,0.669149 0.109738,1.166205 -0.129082,0.497123 -0.640775,1.673653 -0.739008,1.368605 -0.09824,-0.305056 -0.199121,-1.218949 -0.07087,-1.718693 0.128197,-0.499713 0.600831,-1.116846 0.700141,-0.816117 l -0.235178,0.90042 z" style="fill:#000000;fill-opacity:1;fill-rule:evenodd;stroke:#fffefe;stroke-width:0;stroke-dasharray:none;stroke-opacity:1" ns0:transform-center-x="45.014294" ns0:transform-center-y="15.546442" /><path id="path62-7-0-6" d="m 12.586231,13.189589 c 0.01917,-0.201731 0.06233,-0.443322 -0.114437,-0.698563 -0.176815,-0.255265 -0.745333,-0.809586 -0.766013,-0.610056 -0.02068,0.199538 0.05816,0.750562 0.23479,1.007546 0.176589,0.25698 0.623476,0.498375 0.64566,0.301072 L 12.265,12.72755 Z" style="fill:#000000;fill-opacity:1;fill-rule:evenodd;stroke:none;stroke-width:0.0100378" ns0:transform-center-x="31.014458" ns0:transform-center-y="17.422347" /><path id="path61-8-3" d="m 13.289464,13.981915 c 0.164794,-0.249822 0.382774,-0.541298 0.385937,-0.934137 0.0032,-0.392872 -0.178571,-1.316467 -0.343313,-1.07002 -0.164777,0.246423 -0.480837,0.978945 -0.485435,1.373925 -0.0046,0.395007 0.278107,0.873254 0.442814,0.63023 l 0.0044,-0.711524 z" style="fill:#000000;fill-opacity:1;fill-rule:evenodd;stroke:#fffefe;stroke-width:0.0106977;stroke-opacity:1" /><path id="path62-7-8-6" d="m 12.091953,13.91752 c -0.327456,0.112609 -0.715073,0.269342 -1.174536,0.194291 -0.45952,-0.07508 -1.49882,-0.437862 -1.175326,-0.551106 0.323509,-0.113252 1.247413,-0.278869 1.709713,-0.204763 0.462284,0.07406 0.959643,0.447722 0.640149,0.561578 l -0.831998,-0.137206 z" style="fill:#000000;fill-opacity:1;fill-rule:evenodd;stroke:#fffefe;stroke-width:0.0137702;stroke-opacity:1" ns0:transform-center-x="-21.166349" ns0:transform-center-y="34.038832" /><rect style="font-variation-settings:normal;vector-effect:none;fill:#000000;fill-opacity:1;fill-rule:evenodd;stroke-width:0.159449;stroke-linecap:butt;stroke-linejoin:miter;stroke-miterlimit:4;stroke-dasharray:none;stroke-dashoffset:0;stroke-opacity:1;-inkscape-stroke:none;stop-color:#000000" id="rect6-1" width="0.32357165" height="5.4215827" x="-2.9985747" y="18.490334" transform="matrix(-0.80479384,0.59355444,0.55286109,0.83327344,0,0)" /><path id="path60-8-2-6-5" d="m 13.128141,14.107768 c 0.107515,-1.023167 0.08961,0.473835 0.08449,0.564078 -0.144726,0.358658 -0.08592,-0.550578 -0.08449,-0.564078 z" style="fill:#000000;fill-opacity:1;fill-rule:evenodd;stroke:none;stroke-width:0.0132148" ns0:label="path60-8-2-6-5" /><path id="path60-84-4" d="m 12.027686,13.72081 c -1.231717,-0.137535 0.507002,0.252191 0.613655,0.270222 0.480453,-0.09652 -0.5974,-0.268418 -0.613655,-0.270222 z" style="fill:#000000;fill-opacity:1;fill-rule:evenodd;stroke:none;stroke-width:0.0171739" /></g></g></svg>