<?xml version="1.0" encoding="UTF-8"?>
<svg xmlns:ns0="http://www.inkscape.org/namespaces/inkscape" xmlns:ns1="http://sodipodi.sourceforge.net/DTD/sodipodi-0.dtd" viewBox="0 0 23 23" version="1.1" id="svg1" xml:space="preserve" ns0:version="1.4 (86a8ad7, 2024-10-11)" ns1:docname="Nordfenster.svg" preserveAspectRatio="xMidYMid meet" xmlns="http://www.w3.org/2000/svg"><defs id="defs1"><path-effect effect="bspline" id="path-effect17" is_visible="true" lpeversion="1.3" weight="33.333333" steps="2" helper_size="0" apply_no_weight="true" apply_with_weight="true" only_selected="false" uniform="false" /><path-effect effect="bspline" id="path-effect16" is_visible="true" lpeversion="1.3" weight="33.333333" steps="2" helper_size="0" apply_no_weight="true" apply_with_weight="true" only_selected="false" uniform="false" /><path-effect effect="bspline" id="path-effect14" is_visible="true" lpeversion="1.3" weight="33.333333" steps="2" helper_size="0" apply_no_weight="true" apply_with_weight="true" only_selected="false" uniform="false" /><linearGradient x1="69.982292" y1="167.08438" x2="69.056252" y2="164.70312" gradientUnits="userSpaceOnUse" gradientTransform="scale(2.834646)" spreadMethod="pad" id="linearGradient18"><stop style="stop-opacity:1;stop-color:#000000" offset="0" id="stop17" /><stop style="stop-opacity:0;stop-color:#000000" offset="1" id="stop18" /></linearGradient></defs><g id="g1"><rect style="font-variation-settings:normal;vector-effect:none;fill:#000000;fill-opacity:1;fill-rule:evenodd;stroke-width:0.376985;stroke-linecap:butt;stroke-linejoin:miter;stroke-miterlimit:4;stroke-dasharray:none;stroke-dashoffset:0;stroke-opacity:1;-inkscape-stroke:none;stop-color:#000000" id="rect12" width="19" height="2.6955686" x="1.9999998" y="18.778625" rx="0.49999997" ry="0.5" /><rect style="font-variation-settings:normal;fill:none;fill-opacity:1;fill-rule:evenodd;stroke:#000000;stroke-width:0.714024;stroke-linecap:butt;stroke-linejoin:miter;stroke-miterlimit:4;stroke-dasharray:none;stroke-dashoffset:0;stroke-opacity:1;stop-color:#000000" id="rect2" width="18.285976" height="17.689293" x="2.3570118" y="1.8828185" rx="33.922859" ry="0.49642929" /><rect style="font-variation-settings:normal;vector-effect:none;fill:#000000;fill-opacity:1;fill-rule:evenodd;stroke-width:0.06802;stroke-linecap:butt;stroke-linejoin:miter;stroke-miterlimit:4;stroke-dasharray:none;stroke-dashoffset:0;stroke-opacity:1;-inkscape-stroke:none;stop-color:#000000" id="rect3" width="0.83910787" height="17.955019" x="10.824947" y="1.8394873" rx="33.922859" ry="0.49642926" /><rect style="font-variation-settings:normal;vector-effect:none;fill:#000000;fill-opacity:1;fill-rule:evenodd;stroke-width:0.131807;stroke-linecap:butt;stroke-linejoin:miter;stroke-miterlimit:4;stroke-dasharray:none;stroke-dashoffset:0;stroke-opacity:1;-inkscape-stroke:none;stop-color:#000000" id="rect4" width="18.6" height="0.89348322" x="2.1015687" y="7.6137753" /><g id="g13" style="fill:#000000" transform="matrix(0.89360278,0,0,0.89360278,-1.1003043,1.1441153)"><path id="path3" style="fill:#000000;fill-opacity:1;fill-rule:evenodd;stroke:none;stroke-width:0.0181396" d="m 8.3549676,10.349803 c -0.2087338,-0.0066 -0.3816087,0.157801 -0.4365875,0.455755 -0.066482,0.360344 0.060471,0.802421 0.2927404,1.083456 -0.015963,-0.0063 -0.03229,-0.01249 -0.04919,-0.01851 l -0.00129,-4.73e-4 c -0.5030273,-0.179395 -1.2255003,-0.177258 -1.6138298,0.0047 -0.3883087,0.181977 -0.2955893,0.474953 0.2071906,0.654468 0.2640761,0.09428 0.5887225,0.138449 0.8938171,0.132864 -0.3182358,0.243597 -0.5579069,0.575618 -0.5849818,0.843587 -0.036093,0.357143 0.3188746,0.46543 0.7929175,0.241863 0.3193318,-0.15056 0.6110616,-0.413335 0.7787336,-0.678017 v 4.747042 c 0,0.02717 0.00224,0.04901 0.00503,0.04901 h 0.2784306 c 0.00266,0 0.00489,-0.02185 0.00489,-0.04901 v -4.781564 c 0.1861894,0.174144 0.4284283,0.330988 0.6832227,0.429678 0.495124,0.191771 0.8625,0.09746 0.836116,-0.214681 -0.02271,-0.268781 -0.330719,-0.617904 -0.7336998,-0.852983 0.046087,-0.01144 0.093209,-0.02454 0.1412653,-0.03967 0.5365395,-0.169018 1.0014825,-0.517844 1.0674485,-0.800813 0.06591,-0.282982 -0.289344,-0.404875 -0.815695,-0.27986 -0.4009669,0.09523 -0.7981854,0.309374 -1.0300649,0.539705 0.011742,-0.03559 0.021457,-0.07376 0.028991,-0.114434 l 2.236e-4,-0.0011 C 9.1803838,11.267251 8.9804633,10.715549 8.6541018,10.468393 8.5521147,10.391174 8.4498089,10.352828 8.3549285,10.349818 Z m 0.3919514,1.641796 c 0.055523,9.84e-4 0.1112689,0.01471 0.1599685,0.04214 l 4.236e-4,1.78e-4 c 0.1298043,0.07333 0.1602327,0.21634 0.068005,0.319555 -0.092202,0.103155 -0.2721446,0.127409 -0.4020118,0.0542 -0.1298881,-0.07326 -0.1605038,-0.216281 -0.068383,-0.319496 0.057591,-0.06451 0.1494637,-0.09823 0.2419915,-0.09658 z" /><path id="path60" d="m 9.480681,15.003972 c 1.409162,-0.316296 -0.5467353,0.324792 -0.6677094,0.358271 -0.5752444,-0.02604 0.649111,-0.354108 0.6677094,-0.358271 z" style="fill:#000000;fill-opacity:1;fill-rule:evenodd;stroke:none;stroke-width:0.018672" /><path id="path60-8" d="M 7.9652304,15.449672 C 6.5560681,15.133377 8.5119657,15.774466 8.6329398,15.807945 9.2081842,15.781903 7.9838302,15.453836 7.9652304,15.449672 Z" style="fill:#000000;fill-opacity:1;fill-rule:evenodd;stroke:none;stroke-width:0.018672" /><path id="path61" d="m 9.4570769,14.905226 c 0.3089555,-0.375659 0.6476031,-0.850748 1.3507271,-1.075122 0.703171,-0.22441 2.516867,-0.481186 2.21393,-0.107493 -0.302865,0.37373 -1.35067,1.236017 -2.056422,1.463644 -0.705815,0.227616 -1.8050503,0.09069 -1.5082351,-0.281035 l 1.2746091,-0.404571 z" style="fill:#000000;fill-opacity:1;fill-rule:evenodd;stroke:none;stroke-width:0.018672" /><path id="path62" d="m 7.8557592,15.289512 c -0.3091498,-0.267341 -0.6545668,-0.611685 -1.2925215,-0.70948 -0.6380442,-0.09779 -2.2501868,-0.08932 -1.946525,0.177157 0.3036702,0.266499 1.3091811,0.8398 1.9498393,0.939874 0.6405981,0.100118 1.587349,-0.141968 1.2892072,-0.407551 L 6.6994106,15.113971 Z" style="fill:#000000;fill-opacity:1;fill-rule:evenodd;stroke:none;stroke-width:0.018672" ns0:transform-center-x="-30" ns0:transform-center-y="-36.666667" /></g><path style="fill:#ffffff;fill-opacity:1;fill-rule:evenodd;stroke:#000000;stroke-width:0.125;stroke-dasharray:none;stroke-opacity:1" d="M 3.6034344,18.077619 C 3.9391248,19.226726 4.632936,20.34958 4.632936,20.34958 l 3.7664468,-0.04061 c 0,0 0.5795547,-1.102888 0.8293262,-2.231348 z" id="path13" /><path style="fill:#000000;fill-opacity:1;fill-rule:evenodd;stroke:#000000;stroke-width:0.125;stroke-dasharray:none;stroke-opacity:1" d="m 3.7695577,16.203018 c -0.2308615,0.220825 -0.3962865,0.791583 -0.3012145,1.37824 H 9.323512 C 9.378142,17.019254 9.210505,16.396411 8.9895348,16.162573 8.7685721,15.928738 8.3955912,16.107313 8.3949871,16.107333 l -4.0204033,0.07656 c -0.06799,0.0014 -0.3741645,-0.201689 -0.6050261,0.01913 z" id="path15" /><path style="fill:#000000;stroke-width:0.0565005" d="m 12.639848,18.008337 c 0,-0.02528 0.0392,-0.09387 0.492672,-0.862134 0.203416,-0.344618 0.410295,-0.705782 0.459731,-0.802588 0.04943,-0.0968 0.176174,-0.33113 0.281638,-0.520721 0.244432,-0.439417 0.605281,-1.109698 0.715949,-1.329893 0.03448,-0.06859 0.08374,-0.163262 0.109489,-0.210384 0.03305,-0.06049 0.04269,-0.08835 0.03283,-0.0948 -0.02509,-0.01636 -0.435573,-0.103573 -1.265043,-0.268776 -0.185245,-0.0369 -0.380557,-0.07646 -0.434028,-0.08791 -0.09516,-0.0204 -0.147051,-0.04475 -0.131111,-0.06158 0.01281,-0.01351 0.356238,-0.102691 0.523774,-0.136007 0.08451,-0.0168 0.291901,-0.05629 0.460897,-0.08775 0.300222,-0.0559 1.225385,-0.243798 1.232788,-0.250373 0.0022,-0.002 -0.03033,-0.05019 -0.07197,-0.107457 -0.04163,-0.05727 -0.112819,-0.160256 -0.158179,-0.228845 -0.04536,-0.06859 -0.175499,-0.256583 -0.289187,-0.417768 -0.217218,-0.307976 -0.363803,-0.523956 -0.386708,-0.569781 -0.05352,-0.107086 0.148191,0.02185 0.784124,0.501146 0.207994,0.156768 0.412357,0.312223 0.454137,0.345459 0.04178,0.03324 0.07955,0.05609 0.08394,0.0508 0.0044,-0.0053 0.01724,-0.06854 0.02854,-0.140573 0.01132,-0.07201 0.03841,-0.229147 0.06022,-0.349179 0.05629,-0.309868 0.107251,-0.615152 0.135189,-0.809991 0.03296,-0.229793 0.13866,-0.827257 0.160941,-0.909641 0.03624,-0.133959 0.05716,-0.06223 0.216132,0.740688 0.0584,0.294931 0.115501,0.588114 0.126932,0.651517 0.01876,0.104269 0.02265,0.113801 0.0407,0.09976 0.01092,-0.0085 0.338337,-0.290802 0.727474,-0.627263 0.389137,-0.336462 0.85643,-0.737575 1.038424,-0.891364 0.181995,-0.153787 0.485122,-0.41167 0.673619,-0.573072 0.455534,-0.39006 0.631472,-0.536416 0.644834,-0.536416 0.0283,0 2.21e-4,0.06371 -0.140289,0.318212 -0.656262,1.188749 -0.956896,1.71258 -1.366877,2.381683 -0.105067,0.171472 -0.211653,0.348243 -0.236861,0.392825 -0.02521,0.04457 -0.09373,0.159625 -0.152238,0.25565 -0.252243,0.413873 -0.291618,0.48488 -0.274492,0.494993 0.009,0.0054 0.177942,0.04105 0.375297,0.07935 0.574819,0.11154 1.388078,0.278574 1.421364,0.291928 0.04326,0.01736 0.03802,0.03478 -0.01494,0.04982 -0.04896,0.01394 -0.705446,0.15431 -1.607781,0.343837 -0.308093,0.06471 -0.562517,0.120131 -0.565385,0.123161 -0.007,0.0074 9.17e-4,0.0204 0.100322,0.164118 0.469958,0.679599 0.801033,1.192338 0.789815,1.223183 -0.0082,0.02255 -0.0228,0.01477 -0.225909,-0.120643 -0.352945,-0.235265 -0.816017,-0.595875 -1.029172,-0.801448 -0.0354,-0.03414 -0.06612,-0.05993 -0.06828,-0.0573 -0.0039,0.0048 -0.07115,0.374337 -0.107534,0.590884 -0.01038,0.06174 -0.04776,0.269367 -0.08308,0.461414 -0.03531,0.192047 -0.08315,0.46422 -0.10628,0.604825 -0.04777,0.290309 -0.110136,0.644002 -0.119276,0.676534 -0.0086,0.03091 -0.02688,0.02704 -0.03966,-0.0085 -0.01281,-0.03572 -0.125221,-0.662467 -0.177896,-0.992328 -0.02944,-0.184372 -0.11697,-0.855684 -0.117711,-0.902682 -1.11e-4,-0.006 -0.06019,0.05004 -0.133538,0.124697 -0.07336,0.07465 -0.189021,0.189358 -0.257039,0.254897 -0.394586,0.380205 -0.578389,0.559921 -0.72629,0.710139 -0.158516,0.161 -0.424117,0.419826 -0.666805,0.649801 -0.06228,0.05903 -0.251739,0.24983 -0.420988,0.424 -0.360186,0.37066 -0.676405,0.687614 -0.735259,0.73697 -0.04755,0.03989 -0.06198,0.04333 -0.06198,0.01479 z m 1.212426,-1.52315 c 0.128483,-0.169757 0.316784,-0.412467 0.418445,-0.539355 0.10167,-0.126889 0.264022,-0.334523 0.360798,-0.461414 0.09678,-0.126887 0.264373,-0.342943 0.372437,-0.480121 0.283121,-0.359389 0.685833,-0.882838 0.692942,-0.900694 0.0032,-0.0085 -0.01308,-0.03428 -0.03633,-0.05748 -0.02332,-0.02323 -0.05709,-0.07527 -0.07501,-0.115665 -0.02882,-0.06492 -0.03261,-0.08803 -0.03261,-0.19881 0,-0.119889 0.002,-0.129505 0.04465,-0.220681 0.07825,-0.167071 0.17633,-0.227529 0.368977,-0.227435 0.09405,4.3e-5 0.113803,0.0043 0.170727,0.03568 l 0.06436,0.03563 0.042,-0.04859 c 0.451827,-0.522767 0.660808,-0.763835 0.733341,-0.84594 0.16621,-0.18814 0.502967,-0.596171 0.63814,-0.773205 0.242843,-0.318048 0.45437,-0.574764 0.635521,-0.771297 0.256307,-0.278071 0.258664,-0.29686 0.01351,-0.107755 -0.06879,0.05306 -0.20174,0.162621 -0.295448,0.243468 -0.09372,0.08086 -0.324597,0.273322 -0.513092,0.427721 -0.551892,0.452066 -0.639573,0.52619 -1.204718,1.018452 -0.258656,0.2253 -0.793807,0.714786 -0.84186,0.770021 -0.05791,0.06657 -0.216587,0.401243 -0.311901,0.657869 -0.06236,0.167921 -0.297121,0.643785 -0.495233,1.003887 -0.181382,0.329688 -0.875751,1.619854 -0.922861,1.714713 -0.03917,0.07889 -0.06976,0.149649 -0.06468,0.149649 0.0024,0 0.109421,-0.138895 0.237905,-0.308649 z m 2.233202,-2.572542 c 0.07571,-0.04936 0.107884,-0.174346 0.06975,-0.270709 -0.02346,-0.05925 -0.04833,-0.08757 -0.102492,-0.116745 -0.137665,-0.07414 -0.303108,0.04154 -0.289691,0.202536 0.0071,0.0874 0.04246,0.149446 0.103328,0.182262 0.06844,0.0369 0.164813,0.03808 0.219116,0.0027 z m -0.458885,3.915535 c -0.463137,-0.04339 -1.003433,-0.218281 -1.407633,-0.455622 -0.1451,-0.08521 -0.350052,-0.225181 -0.350052,-0.239083 0,-0.0057 0.02587,-0.03697 0.05745,-0.06982 l 0.05745,-0.05973 0.134589,0.08913 c 0.4108,0.272069 0.880203,0.453496 1.374737,0.531346 0.190073,0.02993 0.617032,0.03633 0.829584,0.01238 0.689833,-0.0775 1.328313,-0.354941 1.884549,-0.818913 0.147035,-0.122649 0.471298,-0.462377 0.582461,-0.610245 0.428111,-0.569458 0.694601,-1.245262 0.783898,-1.987908 0.02905,-0.241695 0.02625,-0.714807 -0.0057,-0.961393 -0.09019,-0.695903 -0.33219,-1.309565 -0.743606,-1.885543 -0.111282,-0.155806 -0.110514,-0.149814 -0.02993,-0.232206 l 0.04659,-0.04763 0.07669,0.10373 c 0.383674,0.519048 0.66868,1.151059 0.776461,1.721835 0.05601,0.296651 0.07637,0.523626 0.07635,0.851098 -2.2e-5,0.333731 -0.01912,0.535847 -0.08127,0.860473 -0.07483,0.390845 -0.256417,0.88139 -0.454701,1.228361 -0.412258,0.721395 -1.075153,1.339814 -1.778903,1.659548 -0.367371,0.166907 -0.736502,0.26647 -1.150538,0.310322 -0.137889,0.01461 -0.521601,0.01448 -0.678495,-2.34e-4 z M 13.11528,16.429069 c -0.271155,-0.32794 -0.439847,-0.594255 -0.594327,-0.938255 -0.177646,-0.39559 -0.274614,-0.748943 -0.337141,-1.228552 -0.02879,-0.220894 -0.02915,-0.713784 -6.66e-4,-0.966444 0.05479,-0.486221 0.155134,-0.849001 0.3553,-1.284475 0.198745,-0.43239 0.398886,-0.730847 0.715923,-1.067621 0.324255,-0.344437 0.597128,-0.551264 1.010441,-0.765859 0.275538,-0.14306 0.461844,-0.217817 0.70907,-0.28452 0.411521,-0.111027 0.771603,-0.146764 1.223408,-0.121383 0.516048,0.02898 1.018585,0.170757 1.4947,0.421723 0.122416,0.06452 0.32499,0.191002 0.32499,0.202904 0,0.0057 -0.02854,0.03609 -0.06339,0.06751 l -0.06339,0.05716 -0.126151,-0.07542 c -0.406847,-0.243245 -0.854572,-0.397229 -1.360211,-0.46781 -0.212888,-0.02972 -0.66088,-0.02994 -0.886339,-4.24e-4 -0.696458,0.09114 -1.303371,0.359367 -1.846702,0.816133 -0.560207,0.470951 -0.991125,1.153904 -1.191437,1.888285 -0.197296,0.723328 -0.19204,1.503495 0.01502,2.228771 0.141083,0.494177 0.414534,0.998692 0.769296,1.419348 l 0.07693,0.09123 -0.05744,0.06155 c -0.03158,0.03384 -0.06084,0.06155 -0.06498,0.06155 -0.004,0 -0.05044,-0.05192 -0.10291,-0.115352 z" id="path2" ns0:transform-center-x="-0.046772167" ns0:transform-center-y="-0.46772167" /><text xml:space="preserve" style="font-size:5.56293px;line-height:1.5;font-family:'Playfair Display';-inkscape-font-specification:'Playfair Display, Normal';text-align:start;letter-spacing:0px;word-spacing:0px;writing-mode:lr-tb;direction:ltr;text-anchor:start;fill:#000000;fill-rule:evenodd;stroke:#020000;stroke-width:0.117;stroke-linejoin:round;stroke-dasharray:none;stroke-opacity:1;paint-order:markers fill stroke" x="14.436389" y="6.7389116" id="text17"><tspan ns1:role="line" id="tspan17" style="stroke:#020000;stroke-width:0.117;stroke-dasharray:none;stroke-opacity:1" x="14.436389" y="6.7389116">N</tspan></text></g><g ns0:label="Ebene 1" ns0:groupmode="layer" id="layer1" /></svg>