<?xml version="1.0" encoding="UTF-8"?>
<svg xmlns:ns0="http://www.inkscape.org/namespaces/inkscape" xmlns:ns1="http://sodipodi.sourceforge.net/DTD/sodipodi-0.dtd" viewBox="0 0 23 23" version="1.1" id="svg1" ns0:version="1.4 (86a8ad7, 2024-10-11)" ns1:docname="Smiley.svg" preserveAspectRatio="xMidYMid meet" xmlns="http://www.w3.org/2000/svg">
  <defs id="defs1" />
  <g ns0:label="Ebene 1" ns0:groupmode="layer" id="layer1">
    <g id="g1">
      <path style="fill:#ffffff;fill-opacity:1;fill-rule:evenodd;stroke:#000000;stroke-width:0.51422;stroke-dasharray:none;paint-order:markers fill stroke" id="path1" ns1:type="arc" ns1:cx="11.443439" ns1:cy="11.279648" ns1:rx="9.5299406" ns1:ry="9.2692423" ns1:start="5.3302931" ns1:end="5.3302879" ns1:open="true" ns1:arc-type="arc" d="M 16.964401,3.7243399 A 9.5299406,9.2692423 0 0 1 19.211247,16.64957 9.5299406,9.2692423 0 0 1 5.9224964,18.83497 9.5299406,9.2692423 0 0 1 3.6756153,5.9097448 9.5299406,9.2692423 0 0 1 16.96436,3.724312" />
      <path id="path2" style="fill:#000000;fill-rule:evenodd;stroke:#000000;stroke-width:0.0895309;paint-order:markers fill stroke" d="M 17.913786,14.080171 C 14.856433,16.204073 9.8841901,16.966749 6.1052494,15.240788 5.4152185,14.920682 4.8025743,14.536386 4.2872893,14.100427 c 0.4869031,1.246741 1.7674391,2.64981 2.9855047,3.417696 3.24818,2.030887 7.388386,1.040265 9.697055,-1.817124 0.401571,-0.497554 1.488318,-1.999002 0.943937,-1.620828 z" ns1:nodetypes="sccccs" />
      <path style="fill:#000000;fill-opacity:1;fill-rule:evenodd;stroke:#ffffff;stroke-width:0.102381;stroke-dasharray:none;stroke-opacity:1;paint-order:markers fill stroke" id="path4" ns1:type="arc" ns1:cx="6.7462974" ns1:cy="8.7177925" ns1:rx="1.9353769" ns1:ry="1.9353769" ns1:start="5.3302931" ns1:end="5.3302879" ns1:open="true" ns1:arc-type="arc" d="M 7.8675156,7.1402776 A 1.9353769,1.9353769 0 0 1 8.3238138,9.8390087 1.9353769,1.9353769 0 0 1 5.6250833,10.29531 1.9353769,1.9353769 0 0 1 5.168778,7.5965805 1.9353769,1.9353769 0 0 1 7.8675074,7.1402717" />
      <path id="path4-4" style="fill:#000000;fill-opacity:1;fill-rule:evenodd;stroke:#000000;stroke-width:0.102381;stroke-dasharray:none;stroke-opacity:1;paint-order:markers fill stroke" d="M 15.345274,6.7921302 A 1.9353769,1.9353769 0 0 0 13.677451,7.6041389 1.9353769,1.9353769 0 0 0 13.322904,8.6823838 1.9353769,1.9353769 0 0 1 15.75653,8.5205611 1.9353769,1.9353769 0 0 1 16.569938,10.138778 1.9353769,1.9353769 0 0 0 16.832474,9.8465382 1.9353769,1.9353769 0 0 0 16.376112,7.1478776 1.9353769,1.9353769 0 0 0 15.345274,6.7921302 Z" />
      <rect style="font-variation-settings:normal;vector-effect:none;fill:#000000;fill-opacity:1;fill-rule:evenodd;stroke-width:0.038209;stroke-linecap:butt;stroke-linejoin:miter;stroke-miterlimit:4;stroke-dasharray:none;stroke-dashoffset:0;stroke-opacity:1;-inkscape-stroke:none;stop-color:#000000" id="rect6" width="0.61800373" height="1.8902739" x="17.504137" y="13.56811" rx="2.705215" ry="0.47917584" />
      <rect style="font-variation-settings:normal;vector-effect:none;fill:#000000;fill-opacity:1;fill-rule:evenodd;stroke-width:0.038209;stroke-linecap:butt;stroke-linejoin:miter;stroke-miterlimit:4;stroke-dasharray:none;stroke-dashoffset:0;stroke-opacity:1;-inkscape-stroke:none;stop-color:#000000" id="rect6-2" width="0.61800373" height="1.8902739" x="4.2049813" y="13.681566" rx="2.705215" ry="0.47917584" />
    </g>
  </g>
</svg>